<?xml version="1.0" encoding="utf-8"?>
<!-- Generator: Adobe Illustrator 18.1.1, SVG Export Plug-In . SVG Version: 6.00 Build 0)  -->
<svg version="1.1" id="red-panda-log-circle" xmlns="http://www.w3.org/2000/svg" xmlns:xlink="http://www.w3.org/1999/xlink"
	 x="0px" y="0px" viewBox="0 0 2000 2000" style="enable-background:new 0 0 2000 2000;" xml:space="preserve">
<radialGradient id="Circle_1_" cx="1000" cy="1000" r="1000" gradientUnits="userSpaceOnUse">
	<stop  offset="0" style="stop-color:#BC2026"/>
	<stop  offset="0.1477" style="stop-color:#BA2025;stop-opacity:0.8523"/>
	<stop  offset="0.3034" style="stop-color:#B21D22;stop-opacity:0.6966"/>
	<stop  offset="0.4628" style="stop-color:#A6191D;stop-opacity:0.5372"/>
	<stop  offset="0.6248" style="stop-color:#931215;stop-opacity:0.3752"/>
	<stop  offset="0.7889" style="stop-color:#7C0607;stop-opacity:0.2111"/>
	<stop  offset="0.9523" style="stop-color:#610000;stop-opacity:4.768032e-02"/>
	<stop  offset="1" style="stop-color:#570000;stop-opacity:0"/>
</radialGradient>
<circle id="Circle" style="fill:url(#Circle_1_);" cx="1000" cy="1000" r="1000"/>
<g id="RedPandaHead">
	<g id="beard-left">
		<g>
			<path style="fill:none;stroke:#FFFFFF;stroke-width:0.798;stroke-linecap:round;stroke-linejoin:round;" d="M376.5,1224.8
				l26.2-26.2c0.9,0.9-28.4,34.8-28.4,34.8s33.4-33.8,33.6-33.6c0,0-34.8,36.5-33.4,37.9c0.1,0.1,42-42.4,42.2-42.2l-38.9,45
				c0.2,0.2,44.1-44.3,44.2-44.2c1.4,1.4-43.5,47.5-42.6,48.3c0,0,44.2-44.5,44.4-44.4c1.3,1.3-61.5,66.3-61.5,66.3
				s46.4-48.2,47.3-47.3c0.9,0.9-45.1,48.8-44.1,49.7c0,0,58.4-58.8,58.6-58.6c0,0-53.3,59.1-52.9,59.5c0,0,59.2-59.5,59.3-59.3
				c1.6,1.6-62.6,63.7-60.9,65.4c1.3,1.3,50.8-52.3,51.5-51.5c0,0-60.2,62.4-58.5,64.2c1.5,1.5,58.8-60.2,59.5-59.5
				c2.3,2.3-59,63.8-59,63.8s66.9-69.4,68.2-68.2c0,0-68.7,70.1-67.1,71.7c0,0,59.4-61.8,60.6-60.6c0,0-56.8,59-54.8,61
				c0,0,63.5-64,63.7-63.7c1.8,1.8-67.4,73.6-67.4,73.6s72.4-73,72.7-72.7c1.5,1.5-69.4,70.2-66.9,72.7c0,0,73.6-76.1,74.8-74.8
				c3,3-80,80.3-77.3,83c0.6,0.6,75.2-78.9,77-77c0,0-79.6,81.3-77.2,83.7c1.6,1.6,70.6-74.4,72.5-72.5c2.2,2.2-61.8,66.9-61.8,66.9
				c1.3,1.3,65.5-68,66.8-66.8c0,0-79.1,81.3-77.1,83.3c1.4,1.4,78.6-82,80.3-80.3c1.3,1.3-74.6,78.3-73.5,79.4
				c1.4,1.4,76-78.3,77.1-77.1c0.2,0.2-77.4,77.7-75.2,79.9c1.6,1.6,77.2-77.2,77.2-77.2c0.2,0.2-69.4,75.7-69.4,75.7
				s73.3-77.5,75.4-75.4l-72.7,77.3c1.1,1.1,75.7-75.7,75.7-75.7c1.3,1.3-72.5,79.3-72.5,79.3c0.5,0.5,69.3-69.3,69.3-69.3
				s-82.5,84.7-81.3,85.9c2,2,98.4-98.4,98.4-98.4c1.5,1.5-92.9,92.8-90.6,95.1c0.6,0.6,86.4-90,88.2-88.2
				c2.7,2.7-79.5,83.8-78.7,84.6l86.3-86.3c1.2,1.2-80.5,84-79.4,85.1c1.9,1.9,77-79.7,78.4-78.4c0,0-93.8,97.8-93.4,98.2
				c2.1,2.1,93.5-93.5,93.5-93.5c0.1,0.1-76.5,77.8-74.2,80.1l79.9-79.9c2.4,2.4-84,88.5-83.5,89c0,0,82.2-83.3,82.7-82.7
				c1,1-82.5,87.9-82.5,87.9c0.1,0.1,74.4-77,75.7-75.7c2.5,2.5-79.7,82.2-78.3,83.6c0,0,87.4-88,87.7-87.7l-77.9,83.6
				c0.2,0.2,76.6-80.6,78.6-78.6c2.3,2.3-74.3,75.8-72.4,77.7c0.9,0.9,78.8-80.7,79.7-79.7c0.2,0.2-74.5,78.1-73.7,78.9
				c0,0,76-76.7,76.4-76.4c1.4,1.4-67.5,74-67.5,74c1.4,1.4,66.9-69,67.9-67.9c0.4,0.4-82.8,84.4-80.4,86.8
				c0.8,0.8,83-83.3,83.2-83.2c0.1,0.1-67.9,72.5-67,73.3l70-70c0,0-66.8,70.7-66,71.5c0.6,0.6,76.1-76.1,76.1-76.1
				c1.8,1.8-66.4,70.3-65.3,71.5c0,0,72.4-72.9,72.6-72.6l-70,74.8c1.1,1.1,75-78,76.5-76.5c0,0-88.7,91.9-87.9,92.7
				c1.8,1.8,81.4-82.3,81.8-81.8l-64.1,70.5c0.1,0.1,67.3-69.3,68.3-68.3c0,0-62.9,66.5-62.4,67c1.4,1.4,64.1-64.1,64.1-64.1
				c0.3,0.3-66,69.5-65,70.4l66.7-66.7l-72.2,76.9l74.6-74.6c0,0-72,72.9-70,74.8c0,0,68.7-69.7,69.2-69.2c0,0-56.3,62.7-56.3,62.8
				l75.7-75.7c0,0-67.7,69.7-65.8,71.7c0.7,0.7,52.7-53.9,53.3-53.3c0.7,0.7-51.7,53.4-50.2,54.9s53.4-53.4,53.4-53.4
				s-48.6,51.4-47.4,52.6c0.8,0.8,52.1-53.6,52.8-52.8l-56.1,62.4l74-74c1.9,1.9-65.2,69.4-64.6,70c1.1,1.1,52.7-55.6,54.1-54.1
				c1.2,1.2-49.3,53.9-48.4,54.9c0.3,0.3,64-64,64-64l-69.7,75.8c0,0,63.6-64.1,63.8-63.8c0,0-58.5,63.5-58,63.9l74.9-74.9
				l-80.7,86.6c0,0,84-85.1,84.5-84.5c0,0-86.7,89-84.5,91.1c0.5,0.5,79.5-79.5,79.5-79.5s-71.8,75.1-70.7,76.2
				c0.5,0.5,79-82.5,80.8-80.8c0.2,0.2-79.8,84.6-79.8,84.6c0.5,0.5,77.9-77.9,77.9-77.9c0.9,0.9-73.4,73.9-71.2,76.1
				c1.9,1.9,65.9-66.1,66-66c2,2-54.3,56.2-52.6,57.9c1.4,1.4,67.2-67.2,67.2-67.2s-62.5,65.7-61.1,67.1c0,0,59.3-61.3,60.3-60.3
				c0.9,0.9-41.8,47.5-41.8,47.5c0.3,0.3,41.3-42.3,41.8-41.8c0,0-25.1,29.4-24.5,30c0.4,0.4,34.2-34.3,34.3-34.3
				c0.4,0.4-28.1,33.9-28.1,33.9l39.2-39.2"/>
		</g>
	</g>
	<g id="beard-right">
		<g>
			<path style="fill:none;stroke:#FFFFFF;stroke-width:0.798;stroke-linecap:round;stroke-linejoin:round;" d="M1557.1,1189.9
				l26.2,26.2c-0.7,0.7-28.7-22.2-28.7-22.2s33.8,33.4,33.6,33.6c0,0-32.3-30.3-33.6-29c-0.1,0.1,42.4,42,42.2,42.2l-39.2-33
				c-0.2,0.2,44.3,44.1,44.2,44.2c-1.3,1.3-42.2-38-42.9-37.2c0,0,44.5,44.2,44.4,44.4c-1.2,1.2-61.7-56.9-61.7-56.9
				s48.2,46.4,47.3,47.3c-0.8,0.8-43.5-39.6-44.4-38.7c0,0,58.8,58.4,58.6,58.6c0,0-52.9-47-53.2-46.7c0,0,59.5,59.2,59.3,59.3
				c-1.5,1.5-59.5-58.1-61.1-56.5c-1.3,1.3,52.3,50.8,51.5,51.5c0,0-57.3-54.8-58.9-53.2c-1.5,1.5,60.2,58.8,59.5,59.5
				c-2.2,2.2-62.3-57.5-62.3-57.5s69.4,66.9,68.2,68.2c0,0-68.7-67.2-70.2-65.7c0,0,61.8,59.4,60.6,60.6c0,0-57.1-54.8-59-52.8
				c0,0,64,63.5,63.7,63.7c-1.7,1.7-71.6-65.4-71.6-65.4s73,72.4,72.7,72.7c-1.5,1.5-68.5-67.5-70.9-65.1c0,0,76.1,73.6,74.8,74.8
				c-2.9,2.9-78.6-78.1-81.2-75.6c-0.6,0.6,78.9,75.2,77,77c0,0-80-78.3-82.4-75.9c-1.6,1.6,74.4,70.6,72.5,72.5
				c-2.2,2.2-66-60.9-66-60.9c-1.3,1.3,68,65.5,66.8,66.8c0,0-80.3-78-82.2-76.1c-1.4,1.4,82,78.6,80.3,80.3
				c-1.3,1.3-77.3-73.6-78.4-72.6c-1.4,1.4,78.3,76,77.1,77.1c-0.2,0.2-76.9-76.6-79.1-74.4c-1.6,1.6,77.2,77.2,77.2,77.2
				c-0.2,0.2-75.3-69-75.3-69s77.5,73.3,75.4,75.4l-77-72.4c-1.1,1.1,75.7,75.7,75.7,75.7c-1.3,1.3-78.9-72.1-78.9-72.1
				c-0.5,0.5,69.3,69.3,69.3,69.3s-84.4-82.3-85.7-81c-2,2,98.4,98.4,98.4,98.4c-1.5,1.5-92.6-92.6-94.9-90.3
				c-0.6,0.6,90,86.4,88.2,88.2c-2.7,2.7-84.1-79.9-85-79l86.3,86.3c-1.2,1.2-84.4-80.9-85.5-79.8c-1.9,1.9,79.7,77,78.4,78.4
				c0,0-98.1-94.2-98.6-93.7c-2.1,2.1,93.5,93.5,93.5,93.5c-0.1,0.1-78.2-77-80.6-74.6l79.9,79.9c-2.4,2.4-88.9-84.3-89.4-83.8
				c0,0,83.3,82.2,82.7,82.7c-1,1-88.5-83.2-88.5-83.2c-0.1,0.1,77,74.4,75.7,75.7c-2.5,2.5-83.1-80.7-84.6-79.2
				c0,0,88,87.4,87.7,87.7l-84.9-79.2c-0.2,0.2,80.6,76.6,78.6,78.6c-2.3,2.3-77-75.6-78.9-73.7c-0.9,0.9,80.7,78.8,79.7,79.7
				c-0.2,0.2-79.3-75.8-80.2-75c0,0,76.7,76,76.4,76.4c-1.4,1.4-75.5-69-75.5-69c-1.4,1.4,69,66.9,67.9,67.9
				c-0.4,0.4-86.1-84.5-88.5-82.1c-0.8,0.8,83.3,83,83.2,83.2c-0.1,0.1-74.6-70-75.5-69.2l70,70c0,0-72.5-68.7-73.3-67.9
				c-0.6,0.6,76.1,76.1,76.1,76.1c-1.8,1.8-72.4-68.5-73.6-67.4c0,0,72.9,72.4,72.6,72.6l-76.7-71.9c-1.1,1.1,78,75,76.5,76.5
				c0,0-93.8-90.7-94.6-89.9c-1.8,1.8,82.3,81.4,81.8,81.8L1443,1316c-0.1,0.1,69.3,67.3,68.3,68.3c0,0-68.4-64.8-68.9-64.3
				c-1.4,1.4,64.1,64.1,64.1,64.1c-0.4,0.4-71.6-68.2-72.6-67.2l66.7,66.7l-78.8-74.1l74.6,74.6c0,0-74.8-74-76.8-72
				c0,0,69.7,68.7,69.2,69.2c0,0-65.3-59-65.4-58.9l75.8,75.8c0,0-71.7-69.9-73.8-67.9c-0.7,0.7,53.9,52.7,53.3,53.3
				c-0.7,0.7-55.1-53.5-56.6-52s53.4,53.4,53.4,53.4s-53.4-50.6-54.6-49.3c-0.8,0.8,53.6,52.1,52.8,52.8l-64.8-58.5l74,74
				c-1.9,1.9-71-66.8-71.6-66.2c-1.1,1.1,55.6,52.7,54.1,54.1c-1.3,1.3-55.2-50.7-56.2-49.7c-0.3,0.3,64,64,64,64l-77.1-71
				c0,0,64.1,63.6,63.8,63.8c0,0-64.7-59.7-65.2-59.3l74.9,74.9l-86.9-81c0,0,85.1,84,84.5,84.5c0,0-88.8-86.5-90.9-84.3
				c-0.5,0.5,79.5,79.5,79.5,79.5s-74.9-71.7-76-70.6c-0.5,0.5,82.5,79,80.8,80.8c-0.2,0.2-84.5-79.6-84.5-79.6
				c-0.5,0.5,77.9,77.9,77.9,77.9c-0.9,0.9-78.7-78.5-81-76.1c-1.9,1.9,66,65.8,65.9,65.9c-2.4,2.4-66.2-64.9-68.2-62.9
				c-1.4,1.4,67.2,67.2,67.2,67.2s-77-74.2-78.5-72.6c0,0,61.3,59.2,60.2,60.2c-1.2,1.2-58.6-52.9-58.6-52.9
				c-0.3,0.3,42.2,41.3,41.7,41.7c0,0-39.8-36-40.7-35.2c-0.4,0.4,34.3,34.2,34.2,34.2c-0.6,0.6-45.3-39.4-45.3-39.4l39.1,39.1"/>
		</g>
	</g>
	<path id="outer-ear-left" style="fill:#FFFFFF;" d="M431,1060.6c-29.5,14.8-202,184.5-202.3,140.2c-0.2-36,101.9-231.8,113.1-251.5
		c41.3-72.8,0.2-47.3-35.3-117c-37-72.5-82.3-79.2-130.3-148.9C154,651.2,135,579.7,163.6,541.1c16-21.6,115-5.4,138.1,1.5
		c79.2,23.6,147.6,73.8,216.2,112.7c54.4,30.8,109.5,68.6,101.7,136.2c-4.7,41.3-39.6,38.2-55.1,76.5"/>
	<g id="ear-left">
		<g>
			<radialGradient id="SVGID_1_" cx="488.8275" cy="813.925" r="205.6583" gradientUnits="userSpaceOnUse">
				<stop  offset="0" style="stop-color:#BE202E"/>
				<stop  offset="0.2558" style="stop-color:#BC5931"/>
				<stop  offset="0.8436" style="stop-color:#B6B734"/>
				<stop  offset="1" style="stop-color:#B4D334"/>
			</radialGradient>
			<path style="fill:url(#SVGID_1_);" d="M717.3,993.9c-115.4-20.4-284.2-120-394.5-236.1c-96.4-99-81.1-151.7,45.3-108.8
				c104.3,36.9,238,120.7,292.7,182.5c41,47.4,15.2,68.4-54,50c-53.9-13.6-129-59.1-170.6-103.8c-34.5-36.8-24.3-55.2,24.5-39.9
				c39.7,12.7,92,45.2,116,71.7c18.7,20.8,9.5,30.6-19.9,22.3c-23.2-6.5-55-25.9-71.4-43.7c-13.3-14.4-8.5-21.5,11-15.6"/>
			<radialGradient id="SVGID_2_" cx="471.0845" cy="774.5914" r="197.8779" gradientUnits="userSpaceOnUse">
				<stop  offset="0" style="stop-color:#EF4137"/>
				<stop  offset="0.4154" style="stop-color:#BD2825"/>
				<stop  offset="1" style="stop-color:#790000"/>
			</radialGradient>
			<path style="opacity:0.6;fill:url(#SVGID_2_);enable-background:new    ;" d="M518.4,929.4c-153.5-91.7-290.1-232.5-279.9-294.8
				c17.6-42.5,167.7,10.7,317.5,105.1C668.4,809.4,726.6,876.8,696.2,898c-20.7,19.8-97.2,0.9-176.8-46.9
				c-66.4-40.3-115.5-92.7-105.5-113.7c9.5-15.6,66.2,2.5,123.7,38.2c44.8,27.6,71.4,57.3,61,67.7c-7.7,8.7-40.7-0.3-74.8-21
				c-27.8-17-46.8-37.5-41.7-45.4c4.3-6.1,26.7,0.7,49.7,14.8"/>
			<radialGradient id="SVGID_3_" cx="465.0995" cy="759.0995" r="239.0308" gradientUnits="userSpaceOnUse">
				<stop  offset="0" style="stop-color:#F79420"/>
				<stop  offset="0.4946" style="stop-color:#DF6023"/>
				<stop  offset="1" style="stop-color:#CA1622"/>
			</radialGradient>
			<path style="opacity:0.6;fill:url(#SVGID_3_);enable-background:new    ;" d="M176.6,612.8c-1.7-68.7,176-12.8,372.1,105.8
				c146.1,86.8,228.8,172.8,198.8,203.1c-19.3,28-107.5,12-205-42.1C461,833.5,392.7,766.5,395.7,734.3
				c4.4-24.2,70.8-6.2,144.4,37.2c57.2,33.4,94.6,71.4,85.9,86.7c-6.2,12.9-44.4,4.6-86.9-19.5c-34.6-19.8-61.1-46.1-58.3-58.1
				c2.6-9.3,28.8-2.7,57.9,14.2c23,13.3,38.9,29.4,35.9,36.1"/>
			<radialGradient id="SVGID_4_" cx="471.3708" cy="760.0594" r="212.7031" gradientUnits="userSpaceOnUse">
				<stop  offset="0" style="stop-color:#F15B29"/>
				<stop  offset="0.5685" style="stop-color:#EF4529"/>
				<stop  offset="1" style="stop-color:#EE3829"/>
			</radialGradient>
			<path style="opacity:0.6;fill:url(#SVGID_4_);enable-background:new    ;" d="M322.7,789.7c-136.7-128.4-150.3-215.4-6.5-176
				C438.5,651.1,613.8,755.2,695,836.1c59.5,60.5,36.8,91.6-42.8,75.8c-60.7-10.3-152.8-61.2-211.3-118.1
				c-49.3-47.5-47.1-77.1,8.6-63.3c45.8,12,113,51,147.8,85.4c26.9,26.7,20.3,41.6-13.3,34.4c-26.4-5.4-66-27.7-89.4-50.6
				c-19.1-18.6-17-29.8,5.4-24.5c18.1,4.4,44.8,19.8,59.3,34"/>
		</g>
	</g>
	<path id="outer-ear-right" style="fill:#FFFFFF;" d="M1543.5,1060.6c29.5,14.8,202,184.5,202.3,140.2
		c0.2-36-101.9-231.8-113.1-251.5c-41.3-72.8-0.2-47.3,35.3-117c37-72.5,82.3-79.2,130.3-148.9c22.2-32.2,41.2-103.7,12.6-142.3
		c-16-21.6-115-5.4-138.1,1.5c-79.2,23.6-147.6,73.8-216.2,112.7c-54.4,30.8-109.4,68.6-101.7,136.2c4.7,41.3,39.6,38.2,55.1,76.5"
		/>
	<g id="ear-right">
		<g>
			<radialGradient id="SVGID_5_" cx="1489.3754" cy="810.7896" r="210.0682" gradientUnits="userSpaceOnUse">
				<stop  offset="0" style="stop-color:#BE202E"/>
				<stop  offset="0.2558" style="stop-color:#BC5931"/>
				<stop  offset="0.8436" style="stop-color:#B6B734"/>
				<stop  offset="1" style="stop-color:#B4D334"/>
			</radialGradient>
			<path style="fill:url(#SVGID_5_);" d="M1253.5,991.4c131.5-23.3,318-127.4,421.3-239.8c84.1-92.7,61.1-144.6-54.4-111.3
				c-94.2,28.5-221.9,106.6-282.8,171.4c-47.9,50.7-27.6,76.6,43.6,59.8c56.3-12.7,134.6-58,175.7-102.4c33.2-36,22.6-55.6-24.2-43
				c-37.7,10.4-89.2,41.3-114.6,68.5c-20.2,21.6-12.5,32.9,17,25.6c23.5-5.7,55.8-24.7,72.5-42.6c13.4-14.4,8.8-22.1-10.3-17.2"/>
			<radialGradient id="SVGID_6_" cx="1515.8838" cy="769.1424" r="194.4861" gradientUnits="userSpaceOnUse">
				<stop  offset="0" style="stop-color:#EF4137"/>
				<stop  offset="0.4154" style="stop-color:#BD2825"/>
				<stop  offset="1" style="stop-color:#790000"/>
			</radialGradient>
			<path style="opacity:0.6;fill:url(#SVGID_6_);enable-background:new    ;" d="M1479.6,920.8c164.6-93.5,285.7-226.3,263-285.8
				c-21.3-43.3-155.6-2.9-295.6,83.6c-110.5,66.5-179,138.8-156.2,166c16.8,23.5,97.3,5.7,182-42.7c68.5-39.8,116.1-91.3,105-113.2
				c-9.4-16.8-63.3-2.1-119.5,31.8c-44.7,26.6-73.7,57.4-65.1,69.6c6.6,10,40.1,2,75.3-18.5c28.3-16.6,47.4-37.2,42.5-45.7
				c-4-6.7-25.8-1-48.7,12.6"/>
			<radialGradient id="SVGID_7_" cx="1517.9834" cy="755.0851" r="233.8999" gradientUnits="userSpaceOnUse">
				<stop  offset="0" style="stop-color:#F79420"/>
				<stop  offset="0.4946" style="stop-color:#DF6023"/>
				<stop  offset="1" style="stop-color:#CA1622"/>
			</radialGradient>
			<path style="opacity:0.6;fill:url(#SVGID_7_);enable-background:new    ;" d="M1801.3,616.9c-9.1-66.3-165.7-27-344.5,78.8
				c-141.3,81-237.9,173.5-220,212.4c12.3,33.5,105.8,18.6,211.8-37.1c85.8-46.1,152.4-111.9,147-144.5
				c-5.1-25.1-67.9-11.4-139.2,29.2c-56.7,31.9-97.4,71.2-91.6,89c4.4,14.6,43.4,7.5,87.6-16.5c35.6-19.4,62.4-45.7,59.6-58.4
				c-2.3-9.9-27.8-4.7-56.7,11.5c-23.1,12.8-39.9,29.2-37.7,36.8"/>
			<radialGradient id="SVGID_8_" cx="1515.5381" cy="754.1367" r="208.8535" gradientUnits="userSpaceOnUse">
				<stop  offset="0" style="stop-color:#F15B29"/>
				<stop  offset="0.5685" style="stop-color:#EF4529"/>
				<stop  offset="1" style="stop-color:#EE3829"/>
			</radialGradient>
			<path style="opacity:0.6;fill:url(#SVGID_8_);enable-background:new    ;" d="M1681.8,781.6c120.7-119.6,116.9-201.3-14.5-173.2
				c-108.3,26.3-272,120.7-360.6,204.7c-69.2,64.8-56.4,103.2,25.3,89.6c64-9.3,162.2-60.8,221-117.4c47.7-46.3,43.9-76.6-9.4-66.1
				c-43.2,9.1-108.7,45.7-145.5,80.7c-29.1,27.7-25,44.7,8.7,38.7c26.8-4.5,67.6-26.5,91.5-49.4c19.2-18.5,17.3-30.4-4.5-26.2
				c-17.5,3.4-44.1,18.1-59.2,32.5"/>
		</g>
	</g>
	<linearGradient id="upper-head_1_" gradientUnits="userSpaceOnUse" x1="1361.4934" y1="1427.7935" x2="607.1065" y2="673.4065">
		<stop  offset="0" style="stop-color:#941A1D"/>
		<stop  offset="8.997196e-02" style="stop-color:#AB3123"/>
		<stop  offset="0.2179" style="stop-color:#C54729"/>
		<stop  offset="0.3601" style="stop-color:#D9582E"/>
		<stop  offset="0.5263" style="stop-color:#E76331"/>
		<stop  offset="0.7744" style="stop-color:#ED6732"/>
		<stop  offset="0.8585" style="stop-color:#ED6932"/>
		<stop  offset="0.8912" style="stop-color:#EE6E33"/>
		<stop  offset="0.9149" style="stop-color:#EF7735"/>
		<stop  offset="0.9343" style="stop-color:#F18337"/>
		<stop  offset="0.9511" style="stop-color:#F3933B"/>
		<stop  offset="0.966" style="stop-color:#F7A73F"/>
		<stop  offset="0.9796" style="stop-color:#FBBF45"/>
		<stop  offset="0.9917" style="stop-color:#FFDB4B"/>
		<stop  offset="1" style="stop-color:#FFF450"/>
	</linearGradient>
	<ellipse id="upper-head" style="fill:url(#upper-head_1_);" cx="984.3" cy="1050.6" rx="642.4" ry="395.3"/>
	<linearGradient id="left-eye-ring_1_" gradientUnits="userSpaceOnUse" x1="651.2836" y1="1083.1001" x2="845.1964" y2="1083.1001">
		<stop  offset="0" style="stop-color:#FFFFFF"/>
		<stop  offset="1" style="stop-color:#000000"/>
	</linearGradient>
	
		<path id="left-eye-ring" style="opacity:0.7;fill:url(#left-eye-ring_1_);stroke:#2E3192;stroke-width:0.798;stroke-miterlimit:10;enable-background:new    ;" d="
		M844.4,1110.8c-6.8,23.7-55.4,30.5-108.5,15.2s-90.7-46.9-83.8-70.6s55.4-30.5,108.5-15.2C813.7,1055.5,851.2,1087.1,844.4,1110.8z
		"/>
	
		<radialGradient id="left-eye_1_" cx="756.2676" cy="1080.9802" r="39.7946" gradientTransform="matrix(1 0 0 0.5 0 540.4902)" gradientUnits="userSpaceOnUse">
		<stop  offset="0" style="stop-color:#FFFFFF"/>
		<stop  offset="7.380247e-03" style="stop-color:#F6F6F6"/>
		<stop  offset="4.767627e-02" style="stop-color:#C8C8C8"/>
		<stop  offset="9.308982e-02" style="stop-color:#9D9D9D"/>
		<stop  offset="0.1419" style="stop-color:#777777"/>
		<stop  offset="0.195" style="stop-color:#575757"/>
		<stop  offset="0.2537" style="stop-color:#3B3B3B"/>
		<stop  offset="0.32" style="stop-color:#252525"/>
		<stop  offset="0.3974" style="stop-color:#141414"/>
		<stop  offset="0.4931" style="stop-color:#090909"/>
		<stop  offset="0.6274" style="stop-color:#020202"/>
		<stop  offset="1" style="stop-color:#000000"/>
	</radialGradient>
	<path id="left-eye" style="fill:url(#left-eye_1_);" d="M834.1,1118.6c-4.1,14.3-28.7,19.7-54.9,12.2c-26.2-7.6-44.2-25.2-40-39.5
		s28.7-19.7,54.9-12.2S838.2,1104.3,834.1,1118.6z"/>
	
		<linearGradient id="right-eye-ring_1_" gradientUnits="userSpaceOnUse" x1="1125.1036" y1="1083.1001" x2="1319.0165" y2="1083.1001">
		<stop  offset="0" style="stop-color:#000000"/>
		<stop  offset="1" style="stop-color:#FFFFFF"/>
	</linearGradient>
	
		<path id="right-eye-ring" style="opacity:0.7;fill:url(#right-eye-ring_1_);stroke:#2E3192;stroke-width:0.798;stroke-miterlimit:10;enable-background:new    ;" d="
		M1125.9,1110.8c6.8,23.7,55.4,30.5,108.5,15.2s90.7-46.9,83.8-70.6c-6.8-23.7-55.4-30.5-108.5-15.2
		C1156.6,1055.5,1119.1,1087.1,1125.9,1110.8z"/>
	
		<radialGradient id="right-eye_1_" cx="1156.3971" cy="1088.9608" r="39.7946" gradientTransform="matrix(1 0 0 0.5 0 544.4805)" gradientUnits="userSpaceOnUse">
		<stop  offset="0" style="stop-color:#FFFFFF"/>
		<stop  offset="7.380247e-03" style="stop-color:#F6F6F6"/>
		<stop  offset="4.767627e-02" style="stop-color:#C8C8C8"/>
		<stop  offset="9.308982e-02" style="stop-color:#9D9D9D"/>
		<stop  offset="0.1419" style="stop-color:#777777"/>
		<stop  offset="0.195" style="stop-color:#575757"/>
		<stop  offset="0.2537" style="stop-color:#3B3B3B"/>
		<stop  offset="0.32" style="stop-color:#252525"/>
		<stop  offset="0.3974" style="stop-color:#141414"/>
		<stop  offset="0.4931" style="stop-color:#090909"/>
		<stop  offset="0.6274" style="stop-color:#020202"/>
		<stop  offset="1" style="stop-color:#000000"/>
	</radialGradient>
	<path id="right-eye" style="fill:url(#right-eye_1_);" d="M1134.4,1118.6c4.1,14.3,28.7,19.7,54.9,12.2c26.2-7.6,44.2-25.2,40-39.5
		c-4.1-14.3-28.7-19.7-54.9-12.2C1148.3,1086.6,1130.3,1104.3,1134.4,1118.6z"/>
	
		<path id="eyebrow-left" style="fill:#FFFFFF;stroke:#FFFFFF;stroke-width:0.798;stroke-linecap:round;stroke-linejoin:round;stroke-miterlimit:10;" d="
		M889.4,1007.9c0.1-2.2,0.2-4.4,0.2-6.7c0-54.6-44.3-98.8-98.8-98.8c-4.2,0-8.3,0.3-12.4,0.8c-12.9-2.1-23.9,0-31.2,7
		c-11,10.5-11.3,29.9-2.8,51.7c50.1,3,90.2,43.3,92.8,93.5c19.5,7.4,36.8,7,47-2.7C894,1043.4,895.3,1026.9,889.4,1007.9z"/>
	
		<path id="eyebrow-right" style="fill:#FFFFFF;stroke:#FFFFFF;stroke-width:0.798;stroke-linecap:round;stroke-linejoin:round;stroke-miterlimit:10;" d="
		M1079.3,1007.9c-0.1-2.2-0.2-4.4-0.2-6.7c0-54.6,44.3-98.8,98.8-98.8c4.2,0,8.3,0.3,12.4,0.8c12.9-2.1,23.9,0,31.2,7
		c11,10.5,11.3,29.9,2.8,51.7c-50.1,3-90.2,43.3-92.8,93.5c-19.5,7.4-36.8,7-47-2.7C1074.7,1043.4,1073.4,1026.9,1079.3,1007.9z"/>
	<path id="white-center" style="fill:#FFFFFF;" d="M1328.9,1244.6c-4.6-15.1-22.3-22.8-35.9-28.7c-27.3-11.9-39.9-6.5-64.6-12
		c-32.9-7.3-54.2-26.4-88.6-57.5c-33.7-30.4-28.7-36.2-52.7-55.1c-5.3-4.1-52.8-40.6-103-40.7l0,0c-50.2,0.1-97.7,36.6-103,40.7
		c-24,18.8-18.9,24.7-52.7,55.1c-34.4,31-55.7,50.2-88.6,57.5c-24.8,5.5-37.4,0.1-64.6,12c-13.6,6-31.3,13.7-35.9,28.7
		c-7.4,24,22.8,52.2,33.5,62.3c47.6,44.5,82,28.3,122.1,69.4c7.7,7.9,1.1,3,40.7,62.3c39.2,58.6,47.6,66.3,55.1,71.8
		c35.6,26.3,78.2,24.5,91,23.9c0.8,0,1.6-0.1,2.4-0.1l0,0c0.8,0,1.6,0.1,2.4,0.1c12.8,0.6,55.4,2.4,91-23.9
		c7.5-5.5,15.9-13.2,55.1-71.8c39.6-59.2,33-54.4,40.7-62.3c40.1-41.1,74.5-24.9,122.1-69.4
		C1306.1,1296.8,1336.3,1268.6,1328.9,1244.6z"/>
	<radialGradient id="white-center-gradient_1_" cx="984.1" cy="1292.5856" r="298.5306" gradientUnits="userSpaceOnUse">
		<stop  offset="0" style="stop-color:#FFFFFF"/>
		<stop  offset="4.980077e-02" style="stop-color:#FCDED1"/>
		<stop  offset="0.1135" style="stop-color:#F9B89C"/>
		<stop  offset="0.1762" style="stop-color:#F79970"/>
		<stop  offset="0.2362" style="stop-color:#F5814E"/>
		<stop  offset="0.293" style="stop-color:#F36F36"/>
		<stop  offset="0.3451" style="stop-color:#F26527"/>
		<stop  offset="0.3885" style="stop-color:#F26122"/>
		<stop  offset="0.4203" style="stop-color:#F26525"/>
		<stop  offset="0.4631" style="stop-color:#F37030"/>
		<stop  offset="0.5122" style="stop-color:#F58045"/>
		<stop  offset="0.5661" style="stop-color:#F79664"/>
		<stop  offset="0.6238" style="stop-color:#FAB48C"/>
		<stop  offset="0.6837" style="stop-color:#FDDAC4"/>
		<stop  offset="0.7308" style="stop-color:#FFFFFF"/>
	</radialGradient>
	<path id="white-center-gradient" style="opacity:0.5;fill:url(#white-center-gradient_1_);enable-background:new    ;" d="
		M1328.9,1244.6c-4.6-15.1-22.3-22.8-35.9-28.7c-27.3-11.9-39.9-6.5-64.6-12c-32.9-7.3-54.2-26.4-88.6-57.5
		c-33.7-30.4-28.7-36.2-52.7-55.1c-5.3-4.1-52.8-40.6-103-40.7l0,0c-50.2,0.1-97.7,36.6-103,40.7c-24,18.8-18.9,24.7-52.7,55.1
		c-34.4,31-55.7,50.2-88.6,57.5c-24.8,5.5-37.4,0.1-64.6,12c-13.6,6-31.3,13.7-35.9,28.7c-7.4,24,22.8,52.2,33.5,62.3
		c47.6,44.5,82,28.3,122.1,69.4c7.7,7.9,1.1,3,40.7,62.3c39.2,58.6,47.6,66.3,55.1,71.8c35.6,26.3,78.2,24.5,91,23.9
		c0.8,0,1.6-0.1,2.4-0.1l0,0c0.8,0,1.6,0.1,2.4,0.1c12.8,0.6,55.4,2.4,91-23.9c7.5-5.5,15.9-13.2,55.1-71.8
		c39.6-59.2,33-54.4,40.7-62.3c40.1-41.1,74.5-24.9,122.1-69.4C1306.1,1296.8,1336.3,1268.6,1328.9,1244.6z"/>
	
		<radialGradient id="nose_1_" cx="931.7634" cy="1275.067" r="81.3374" gradientTransform="matrix(1 0 0 0.5 0 637.5334)" gradientUnits="userSpaceOnUse">
		<stop  offset="0" style="stop-color:#FFFFFF"/>
		<stop  offset="7.380247e-03" style="stop-color:#F6F6F6"/>
		<stop  offset="4.767627e-02" style="stop-color:#C8C8C8"/>
		<stop  offset="9.308982e-02" style="stop-color:#9D9D9D"/>
		<stop  offset="0.1419" style="stop-color:#777777"/>
		<stop  offset="0.195" style="stop-color:#575757"/>
		<stop  offset="0.2537" style="stop-color:#3B3B3B"/>
		<stop  offset="0.32" style="stop-color:#252525"/>
		<stop  offset="0.3974" style="stop-color:#141414"/>
		<stop  offset="0.4931" style="stop-color:#090909"/>
		<stop  offset="0.6274" style="stop-color:#020202"/>
		<stop  offset="1" style="stop-color:#000000"/>
	</radialGradient>
	<path id="nose" style="fill:url(#nose_1_);" d="M1033.7,1248.3h-98.8c-27.2,0-49.4,22.2-49.4,49.4l0,0c0,23.7,16.9,43.7,39.3,48.4
		c16.6,12.5,37.2,19.9,59.5,19.9s43-7.4,59.5-19.9c22.4-4.7,39.3-24.6,39.3-48.4l0,0C1083.1,1270.6,1060.9,1248.3,1033.7,1248.3z"/>
	<g id="mouths">
		<g id="open" style="display:none;">
			<path id="tounge-path-a-shape" class="tounge" style="display:inline;fill:#EC008C;" d="M1107.6,1387.6c-15.1,55.4-65.9,94-123.3,93.7
				c-57-0.4-107.2-39.2-121.9-94.4L1107.6,1387.6z"/>
			<g id="tooth-left-a-shape" class="tooth">
				
					<linearGradient id="SVGID_9_" gradientUnits="userSpaceOnUse" x1="891.2618" y1="1486.0443" x2="901.6279" y2="1482.2715" gradientTransform="matrix(0.9597 0.2529 -0.281 0.8754 459.8357 -87.6717)">
					<stop  offset="0" style="stop-color:#FFFFFF"/>
					<stop  offset="0.3274" style="stop-color:#FCFCFC"/>
					<stop  offset="0.4641" style="stop-color:#F4F5F5"/>
					<stop  offset="0.5653" style="stop-color:#EAEBEB"/>
					<stop  offset="0.6491" style="stop-color:#DBDCDD"/>
					<stop  offset="0.722" style="stop-color:#C8CACC"/>
					<stop  offset="0.7873" style="stop-color:#B0B2B5"/>
					<stop  offset="0.8471" style="stop-color:#96989A"/>
					<stop  offset="0.9025" style="stop-color:#787A7D"/>
					<stop  offset="0.9523" style="stop-color:#565759"/>
					<stop  offset="1" style="stop-color:#000000"/>
				</linearGradient>
				<path style="fill:url(#SVGID_9_);" d="M903.8,1458.8c4.6-0.1,6.5-10.8,4.3-23.8l-1.3-7.6c-2.2-13-5.4-12.9-7.1,0.1l-1,7.6
					C896.9,1448.3,899.3,1458.9,903.8,1458.8z"/>
			</g>
			<g id="tooth-right-a-shape" class="tooth">
				
					<linearGradient id="SVGID_10_" gradientUnits="userSpaceOnUse" x1="1046.5332" y1="1441.1857" x2="1056.8994" y2="1437.4126" gradientTransform="matrix(0.9597 0.2529 -0.281 0.8754 459.8357 -87.6717)">
					<stop  offset="0" style="stop-color:#FFFFFF"/>
					<stop  offset="0.3274" style="stop-color:#FCFCFC"/>
					<stop  offset="0.4641" style="stop-color:#F4F5F5"/>
					<stop  offset="0.5653" style="stop-color:#EAEBEB"/>
					<stop  offset="0.6491" style="stop-color:#DBDCDD"/>
					<stop  offset="0.722" style="stop-color:#C8CACC"/>
					<stop  offset="0.7873" style="stop-color:#B0B2B5"/>
					<stop  offset="0.8471" style="stop-color:#96989A"/>
					<stop  offset="0.9025" style="stop-color:#787A7D"/>
					<stop  offset="0.9523" style="stop-color:#565759"/>
					<stop  offset="1" style="stop-color:#000000"/>
				</linearGradient>
				<path style="fill:url(#SVGID_10_);" d="M1065.4,1458.8c4.6-0.1,6.5-10.8,4.3-23.8l-1.3-7.6c-2.2-13-5.4-12.9-7.1,0.1l-1,7.6
					C1058.5,1448.3,1060.9,1458.9,1065.4,1458.8z"/>
			</g>
			<path id="lips-path-a-shape" class="lips-p" style="fill:none;stroke:#000000;stroke-width:25;stroke-miterlimit:10;" d="M1107.6,1387.6
				c-15.1,55.4-65.9,94-123.3,93.7c-57-0.4-107.2-39.2-121.9-94.4L1107.6,1387.6z"/>
		</g>
		<g id="o-shape" style="display:none;">
			<path id="tounge-path-o-shape" class="tounge" style="fill:#EC008C;" d="M1007.1,1387.6c-2.7,55.4-11.9,94-22.2,93.7
				c-10.3-0.4-19.3-39.2-22-94.4L1007.1,1387.6z"/>
			<g id="tooth-left-o-shape" class="tooth">
				
					<linearGradient id="SVGID_11_" gradientUnits="userSpaceOnUse" x1="891.2618" y1="1486.0443" x2="901.6279" y2="1482.2715" gradientTransform="matrix(0.9597 0.2529 -0.281 0.8754 459.8357 -87.6717)">
					<stop  offset="0" style="stop-color:#FFFFFF"/>
					<stop  offset="0.3274" style="stop-color:#FCFCFC"/>
					<stop  offset="0.4641" style="stop-color:#F4F5F5"/>
					<stop  offset="0.5653" style="stop-color:#EAEBEB"/>
					<stop  offset="0.6491" style="stop-color:#DBDCDD"/>
					<stop  offset="0.722" style="stop-color:#C8CACC"/>
					<stop  offset="0.7873" style="stop-color:#B0B2B5"/>
					<stop  offset="0.8471" style="stop-color:#96989A"/>
					<stop  offset="0.9025" style="stop-color:#787A7D"/>
					<stop  offset="0.9523" style="stop-color:#565759"/>
					<stop  offset="1" style="stop-color:#000000"/>
				</linearGradient>
				<path style="fill:url(#SVGID_11_);" d="M903.8,1458.8c4.6-0.1,6.5-10.8,4.3-23.8l-1.3-7.6c-2.2-13-5.4-12.9-7.1,0.1l-1,7.6
					C896.9,1448.3,899.3,1458.9,903.8,1458.8z"/>
			</g>
			<g id="tooth-right-o-shape" class="tooth">
				
					<linearGradient id="SVGID_12_" gradientUnits="userSpaceOnUse" x1="1046.5332" y1="1441.1857" x2="1056.8994" y2="1437.4126" gradientTransform="matrix(0.9597 0.2529 -0.281 0.8754 459.8357 -87.6717)">
					<stop  offset="0" style="stop-color:#FFFFFF"/>
					<stop  offset="0.3274" style="stop-color:#FCFCFC"/>
					<stop  offset="0.4641" style="stop-color:#F4F5F5"/>
					<stop  offset="0.5653" style="stop-color:#EAEBEB"/>
					<stop  offset="0.6491" style="stop-color:#DBDCDD"/>
					<stop  offset="0.722" style="stop-color:#C8CACC"/>
					<stop  offset="0.7873" style="stop-color:#B0B2B5"/>
					<stop  offset="0.8471" style="stop-color:#96989A"/>
					<stop  offset="0.9025" style="stop-color:#787A7D"/>
					<stop  offset="0.9523" style="stop-color:#565759"/>
					<stop  offset="1" style="stop-color:#000000"/>
				</linearGradient>
				<path style="fill:url(#SVGID_12_);" d="M1065.4,1458.8c4.6-0.1,6.5-10.8,4.3-23.8l-1.3-7.6c-2.2-13-5.4-12.9-7.1,0.1l-1,7.6
					C1058.5,1448.3,1060.9,1458.9,1065.4,1458.8z"/>
			</g>
			<path id="lips-path-o-shape" class="lips-p" style="fill:none;stroke:#000000;stroke-width:25;stroke-miterlimit:10;" d="
				M1010,1384.6c-3.1,55.4-13.4,94-25.1,93.7c-11.6-0.4-21.8-39.2-24.8-94.4L1010,1384.6z"/>
		</g>
		<g id="current">
			<path id="tounge-path" class="tounge" style="display:inline;fill:#EC008C;" d="M1107.6,1387.6c-15.1,55.4-65.9,94-123.3,93.7
				c-57-0.4-107.2-39.2-121.9-94.4L1107.6,1387.6z"/>
			<g id="tooth-left_4_" class="tooth">
				
					<linearGradient id="SVGID_13_" gradientUnits="userSpaceOnUse" x1="891.2618" y1="1486.0443" x2="901.6279" y2="1482.2715" gradientTransform="matrix(0.9597 0.2529 -0.281 0.8754 459.8357 -87.6717)">
					<stop  offset="0" style="stop-color:#FFFFFF"/>
					<stop  offset="0.3274" style="stop-color:#FCFCFC"/>
					<stop  offset="0.4641" style="stop-color:#F4F5F5"/>
					<stop  offset="0.5653" style="stop-color:#EAEBEB"/>
					<stop  offset="0.6491" style="stop-color:#DBDCDD"/>
					<stop  offset="0.722" style="stop-color:#C8CACC"/>
					<stop  offset="0.7873" style="stop-color:#B0B2B5"/>
					<stop  offset="0.8471" style="stop-color:#96989A"/>
					<stop  offset="0.9025" style="stop-color:#787A7D"/>
					<stop  offset="0.9523" style="stop-color:#565759"/>
					<stop  offset="1" style="stop-color:#000000"/>
				</linearGradient>
				<path style="fill:url(#SVGID_13_);" d="M903.8,1458.8c4.6-0.1,6.5-10.8,4.3-23.8l-1.3-7.6c-2.2-13-5.4-12.9-7.1,0.1l-1,7.6
					C896.9,1448.3,899.3,1458.9,903.8,1458.8z"/>
			</g>
			<g id="tooth-right_4_" class="tooth">
				
					<linearGradient id="SVGID_14_" gradientUnits="userSpaceOnUse" x1="1046.5332" y1="1441.1857" x2="1056.8994" y2="1437.4126" gradientTransform="matrix(0.9597 0.2529 -0.281 0.8754 459.8357 -87.6717)">
					<stop  offset="0" style="stop-color:#FFFFFF"/>
					<stop  offset="0.3274" style="stop-color:#FCFCFC"/>
					<stop  offset="0.4641" style="stop-color:#F4F5F5"/>
					<stop  offset="0.5653" style="stop-color:#EAEBEB"/>
					<stop  offset="0.6491" style="stop-color:#DBDCDD"/>
					<stop  offset="0.722" style="stop-color:#C8CACC"/>
					<stop  offset="0.7873" style="stop-color:#B0B2B5"/>
					<stop  offset="0.8471" style="stop-color:#96989A"/>
					<stop  offset="0.9025" style="stop-color:#787A7D"/>
					<stop  offset="0.9523" style="stop-color:#565759"/>
					<stop  offset="1" style="stop-color:#000000"/>
				</linearGradient>
				<path style="fill:url(#SVGID_14_);" d="M1065.4,1458.8c4.6-0.1,6.5-10.8,4.3-23.8l-1.3-7.6c-2.2-13-5.4-12.9-7.1,0.1l-1,7.6
					C1058.5,1448.3,1060.9,1458.9,1065.4,1458.8z"/>
			</g>
			<linearGradient id="mouth-close_1_" gradientUnits="userSpaceOnUse" x1="984.1" y1="1469.2001" x2="984.1" y2="1389.3">
				<stop  offset="0" style="stop-color:#EA0A8A;stop-opacity:0"/>
				<stop  offset="0.3903" style="stop-color:#E8118A;stop-opacity:0.3903"/>
				<stop  offset="0.5309" style="stop-color:#E22289;stop-opacity:0.5309"/>
				<stop  offset="0.6312" style="stop-color:#DA3388;stop-opacity:0.6312"/>
				<stop  offset="0.7123" style="stop-color:#CE4287;stop-opacity:0.7123"/>
				<stop  offset="0.7817" style="stop-color:#BF4F84;stop-opacity:0.7817"/>
				<stop  offset="0.8432" style="stop-color:#AB577E;stop-opacity:0.8432"/>
				<stop  offset="0.8987" style="stop-color:#955975;stop-opacity:0.8987"/>
				<stop  offset="0.9493" style="stop-color:#7B5769;stop-opacity:0.9493"/>
				<stop  offset="0.9949" style="stop-color:#5D4C55;stop-opacity:0.9949"/>
				<stop  offset="1" style="stop-color:#594952"/>
				<stop  offset="1" style="stop-color:#272426"/>
				<stop  offset="1" style="stop-color:#000000"/>
			</linearGradient>
			<path id="mouth-close" style="display:none;fill:url(#mouth-close_1_);" d="M861,1389.3c15,46.1,64.4,79.9,123.1,79.9
				s108.1-33.8,123.1-79.9H861z"/>
			<path id="lips-path" class="lips-p" style="fill:none;stroke:#000000;stroke-width:25;stroke-miterlimit:10;" d="M1107.6,1387.6
				c-15.1,55.4-65.9,94-123.3,93.7c-57-0.4-107.2-39.2-121.9-94.4L1107.6,1387.6z"/>
		</g>
	</g>
	<path id="triangle-right_1_" style="opacity:0.8;fill:#FFFFFF;enable-background:new    ;" d="M1375,1101.1l175.5,137.3l-0.4-0.4
		c-21.4,24.4-46.8,47.2-75.7,68.2l3.6,4.7l-137.3-175.5C1314.8,1102.3,1341.9,1075.2,1375,1101.1z"/>
	<path id="triangle-left" style="opacity:0.8;fill:#FFFFFF;enable-background:new    ;" d="M593.6,1101.1l-175.5,137.3l0.4-0.4
		c21.4,24.4,46.8,47.2,75.7,68.2l-3.6,4.7l137.3-175.5C653.8,1102.3,626.7,1075.2,593.6,1101.1z"/>
	<g id="whiskers-left">
		
			<path style="fill:none;stroke:#FFFFFF;stroke-width:2.3941;stroke-linecap:round;stroke-linejoin:round;stroke-miterlimit:10;" d="
			M786.3,1527.6c-86.8,22.4-175.4-29.9-197.8-116.7c-17.9-69.5,23.9-140.3,93.4-158.2c0,0,34.7-21.4,86.6,12"/>
		
			<path style="fill:none;stroke:#FFFFFF;stroke-width:2.3941;stroke-linecap:round;stroke-linejoin:round;stroke-miterlimit:10;" d="
			M632.8,1525.1c-77.2-45.6-102.9-145.1-57.3-222.4c36.5-61.8,116.1-82.3,177.9-45.8"/>
		
			<path style="fill:none;stroke:#FFFFFF;stroke-width:2.3941;stroke-linecap:round;stroke-linejoin:round;stroke-miterlimit:10;" d="
			M516.4,1415.6c-11.2-43.4-3.7-87.3,17.4-123.1c21.1-35.8,55.9-63.5,99.3-74.7c34.7-8.9,69.8-3,98.4,13.9"/>
		
			<path style="fill:none;stroke:#FFFFFF;stroke-width:2.3941;stroke-linecap:round;stroke-linejoin:round;stroke-miterlimit:10;" d="
			M676.3,1484.6c-61.8-36.5-82.3-116.1-45.8-177.9c29.2-49.4,100.5-76,142.3-36.7"/>
	</g>
	<g id="whiskers-right">
		
			<path style="fill:none;stroke:#FFFFFF;stroke-width:2.3941;stroke-linecap:round;stroke-linejoin:round;stroke-miterlimit:10;" d="
			M1194.5,1527.6c86.8,22.4,175.4-29.9,197.8-116.7c17.9-69.5-23.9-140.3-93.4-158.2c0,0-34.7-21.4-86.6,12"/>
		
			<path style="fill:none;stroke:#FFFFFF;stroke-width:2.3941;stroke-linecap:round;stroke-linejoin:round;stroke-miterlimit:10;" d="
			M1348.1,1525.1c77.2-45.6,102.9-145.1,57.3-222.4c-36.5-61.8-116.1-82.3-177.9-45.8"/>
		
			<path style="fill:none;stroke:#FFFFFF;stroke-width:2.3941;stroke-linecap:round;stroke-linejoin:round;stroke-miterlimit:10;" d="
			M1464.5,1415.6c11.2-43.4,3.7-87.3-17.4-123.1c-21.1-35.8-55.9-63.5-99.3-74.7c-34.7-8.9-69.8-3-98.4,13.9"/>
		
			<path style="fill:none;stroke:#FFFFFF;stroke-width:2.3941;stroke-linecap:round;stroke-linejoin:round;stroke-miterlimit:10;" d="
			M1304.5,1484.6c61.8-36.5,82.3-116.1,45.8-177.9c-29.2-49.4-100.5-76-142.3-36.7"/>
	</g>
</g>
</svg>
