<svg xmlns="http://www.w3.org/2000/svg" viewBox="0 0 2000 2000"><radialGradient id="a" cx="1000" cy="1000" r="1000" gradientTransform="matrix(1 0 0 -1 0 2000)" gradientUnits="userSpaceOnUse"><stop offset="0" stop-color="#BC2026"/><stop offset=".148" stop-color="#BA2025" stop-opacity=".852"/><stop offset=".303" stop-color="#B21D22" stop-opacity=".697"/><stop offset=".463" stop-color="#A6191D" stop-opacity=".537"/><stop offset=".625" stop-color="#931215" stop-opacity=".375"/><stop offset=".789" stop-color="#7C0607" stop-opacity=".211"/><stop offset=".952" stop-color="#610000" stop-opacity=".048"/><stop offset="1" stop-color="#570000" stop-opacity="0"/></radialGradient><circle cx="1000" cy="1000" r="1000" fill="url(#a)"/><path d="M376.5 1224.8l26.2-26.2c.9.9-28.4 34.8-28.4 34.8s33.4-33.8 33.6-33.6c0 0-34.8 36.5-33.4 37.9.1.1 42-42.4 42.2-42.2l-38.9 45c.2.2 44.1-44.3 44.2-44.2 1.4 1.4-43.5 47.5-42.6 48.3 0 0 44.2-44.5 44.4-44.4 1.3 1.3-61.5 66.3-61.5 66.3s46.4-48.2 47.3-47.3c.9.9-45.1 48.8-44.1 49.7 0 0 58.4-58.8 58.6-58.6 0 0-53.3 59.1-52.9 59.5 0 0 59.2-59.5 59.3-59.3 1.6 1.6-62.6 63.7-60.9 65.4 1.3 1.3 50.8-52.3 51.5-51.5 0 0-60.2 62.4-58.5 64.2 1.5 1.5 58.8-60.2 59.5-59.5 2.3 2.3-59 63.8-59 63.8s66.9-69.4 68.2-68.2c0 0-68.7 70.1-67.1 71.7 0 0 59.4-61.8 60.6-60.6 0 0-56.8 59-54.8 61 0 0 63.5-64 63.7-63.7 1.8 1.8-67.4 73.6-67.4 73.6s72.4-73 72.7-72.7c1.5 1.5-69.4 70.2-66.9 72.7 0 0 73.6-76.1 74.8-74.8 3 3-80 80.3-77.3 83 .6.6 75.2-78.9 77-77 0 0-79.6 81.3-77.2 83.7 1.6 1.6 70.6-74.4 72.5-72.5 2.2 2.2-61.8 66.9-61.8 66.9 1.3 1.3 65.5-68 66.8-66.8 0 0-79.1 81.3-77.1 83.3 1.4 1.4 78.6-82 80.3-80.3 1.3 1.3-74.6 78.3-73.5 79.4 1.4 1.4 76-78.3 77.1-77.1.2.2-77.4 77.7-75.2 79.9 1.6 1.6 77.2-77.2 77.2-77.2.2.2-69.4 75.7-69.4 75.7s73.3-77.5 75.4-75.4l-72.7 77.3c1.1 1.1 75.7-75.7 75.7-75.7 1.3 1.3-72.5 79.3-72.5 79.3.5.5 69.3-69.3 69.3-69.3s-82.5 84.7-81.3 85.9c2 2 98.4-98.4 98.4-98.4 1.5 1.5-92.9 92.8-90.6 95.1.6.6 86.4-90 88.2-88.2 2.7 2.7-79.5 83.8-78.7 84.6l86.3-86.3c1.2 1.2-80.5 84-79.4 85.1 1.9 1.9 77-79.7 78.4-78.4 0 0-93.8 97.8-93.4 98.2 2.1 2.1 93.5-93.5 93.5-93.5.1.1-76.5 77.8-74.2 80.1l79.9-79.9c2.4 2.4-84 88.5-83.5 89 0 0 82.2-83.3 82.7-82.7 1 1-82.5 87.9-82.5 87.9.1.1 74.4-77 75.7-75.7 2.5 2.5-79.7 82.2-78.3 83.6 0 0 87.4-88 87.7-87.7l-77.9 83.6c.2.2 76.6-80.6 78.6-78.6 2.3 2.3-74.3 75.8-72.4 77.7.9.9 78.8-80.7 79.7-79.7.2.2-74.5 78.1-73.7 78.9 0 0 76-76.7 76.4-76.4 1.4 1.4-67.5 74-67.5 74 1.4 1.4 66.9-69 67.9-67.9.4.4-82.8 84.4-80.4 86.8.8.8 83-83.3 83.2-83.2.1.1-67.9 72.5-67 73.3l70-70s-66.8 70.7-66 71.5c.6.6 76.1-76.1 76.1-76.1 1.8 1.8-66.4 70.3-65.3 71.5 0 0 72.4-72.9 72.6-72.6l-70 74.8c1.1 1.1 75-78 76.5-76.5 0 0-88.7 91.9-87.9 92.7 1.8 1.8 81.4-82.3 81.8-81.8l-64.1 70.5c.1.1 67.3-69.3 68.3-68.3 0 0-62.9 66.5-62.4 67 1.4 1.4 64.1-64.1 64.1-64.1.3.3-66 69.5-65 70.4l66.7-66.7-72.2 76.9 74.6-74.6s-72 72.9-70 74.8c0 0 68.7-69.7 69.2-69.2 0 0-56.3 62.7-56.3 62.8l75.7-75.7s-67.7 69.7-65.8 71.7c.7.7 52.7-53.9 53.3-53.3.7.7-51.7 53.4-50.2 54.9s53.4-53.4 53.4-53.4-48.6 51.4-47.4 52.6c.8.8 52.1-53.6 52.8-52.8l-56.1 62.4 74-74c1.9 1.9-65.2 69.4-64.6 70 1.1 1.1 52.7-55.6 54.1-54.1 1.2 1.2-49.3 53.9-48.4 54.9.3.3 64-64 64-64l-69.7 75.8s63.6-64.1 63.8-63.8c0 0-58.5 63.5-58 63.9l74.9-74.9-80.7 86.6s84-85.1 84.5-84.5c0 0-86.7 89-84.5 91.1.5.5 79.5-79.5 79.5-79.5s-71.8 75.1-70.7 76.2c.5.5 79-82.5 80.8-80.8.2.2-79.8 84.6-79.8 84.6.5.5 77.9-77.9 77.9-77.9.9.9-73.4 73.9-71.2 76.1 1.9 1.9 65.9-66.1 66-66 2 2-54.3 56.2-52.6 57.9 1.4 1.4 67.2-67.2 67.2-67.2s-62.5 65.7-61.1 67.1c0 0 59.3-61.3 60.3-60.3.9.9-41.8 47.5-41.8 47.5.3.3 41.3-42.3 41.8-41.8 0 0-25.1 29.4-24.5 30 .4.4 34.2-34.3 34.3-34.3.4.4-28.1 33.9-28.1 33.9l39.2-39.2M1557.1 1189.9l26.2 26.2c-.7.7-28.7-22.2-28.7-22.2s33.8 33.4 33.6 33.6c0 0-32.3-30.3-33.6-29-.1.1 42.4 42 42.2 42.2l-39.2-33c-.2.2 44.3 44.1 44.2 44.2-1.3 1.3-42.2-38-42.9-37.2 0 0 44.5 44.2 44.4 44.4-1.2 1.2-61.7-56.9-61.7-56.9s48.2 46.4 47.3 47.3c-.8.8-43.5-39.6-44.4-38.7 0 0 58.8 58.4 58.6 58.6 0 0-52.9-47-53.2-46.7 0 0 59.5 59.2 59.3 59.3-1.5 1.5-59.5-58.1-61.1-56.5-1.3 1.3 52.3 50.8 51.5 51.5 0 0-57.3-54.8-58.9-53.2-1.5 1.5 60.2 58.8 59.5 59.5-2.2 2.2-62.3-57.5-62.3-57.5s69.4 66.9 68.2 68.2c0 0-68.7-67.2-70.2-65.7 0 0 61.8 59.4 60.6 60.6 0 0-57.1-54.8-59-52.8 0 0 64 63.5 63.7 63.7-1.7 1.7-71.6-65.4-71.6-65.4s73 72.4 72.7 72.7c-1.5 1.5-68.5-67.5-70.9-65.1 0 0 76.1 73.6 74.8 74.8-2.9 2.9-78.6-78.1-81.2-75.6-.6.6 78.9 75.2 77 77 0 0-80-78.3-82.4-75.9-1.6 1.6 74.4 70.6 72.5 72.5-2.2 2.2-66-60.9-66-60.9-1.3 1.3 68 65.5 66.8 66.8 0 0-80.3-78-82.2-76.1-1.4 1.4 82 78.6 80.3 80.3-1.3 1.3-77.3-73.6-78.4-72.6-1.4 1.4 78.3 76 77.1 77.1-.2.2-76.9-76.6-79.1-74.4-1.6 1.6 77.2 77.2 77.2 77.2-.2.2-75.3-69-75.3-69s77.5 73.3 75.4 75.4l-77-72.4c-1.1 1.1 75.7 75.7 75.7 75.7-1.3 1.3-78.9-72.1-78.9-72.1-.5.5 69.3 69.3 69.3 69.3s-84.4-82.3-85.7-81c-2 2 98.4 98.4 98.4 98.4-1.5 1.5-92.6-92.6-94.9-90.3-.6.6 90 86.4 88.2 88.2-2.7 2.7-84.1-79.9-85-79l86.3 86.3c-1.2 1.2-84.4-80.9-85.5-79.8-1.9 1.9 79.7 77 78.4 78.4 0 0-98.1-94.2-98.6-93.7-2.1 2.1 93.5 93.5 93.5 93.5-.1.1-78.2-77-80.6-74.6l79.9 79.9c-2.4 2.4-88.9-84.3-89.4-83.8 0 0 83.3 82.2 82.7 82.7-1 1-88.5-83.2-88.5-83.2-.1.1 77 74.4 75.7 75.7-2.5 2.5-83.1-80.7-84.6-79.2 0 0 88 87.4 87.7 87.7l-84.9-79.2c-.2.2 80.6 76.6 78.6 78.6-2.3 2.3-77-75.6-78.9-73.7-.9.9 80.7 78.8 79.7 79.7-.2.2-79.3-75.8-80.2-75 0 0 76.7 76 76.4 76.4-1.4 1.4-75.5-69-75.5-69-1.4 1.4 69 66.9 67.9 67.9-.4.4-86.1-84.5-88.5-82.1-.8.8 83.3 83 83.2 83.2-.1.1-74.6-70-75.5-69.2l70 70s-72.5-68.7-73.3-67.9c-.6.6 76.1 76.1 76.1 76.1-1.8 1.8-72.4-68.5-73.6-67.4 0 0 72.9 72.4 72.6 72.6l-76.7-71.9c-1.1 1.1 78 75 76.5 76.5 0 0-93.8-90.7-94.6-89.9-1.8 1.8 82.3 81.4 81.8 81.8L1443 1316c-.1.1 69.3 67.3 68.3 68.3 0 0-68.4-64.8-68.9-64.3-1.4 1.4 64.1 64.1 64.1 64.1-.4.4-71.6-68.2-72.6-67.2l66.7 66.7-78.8-74.1 74.6 74.6s-74.8-74-76.8-72c0 0 69.7 68.7 69.2 69.2 0 0-65.3-59-65.4-58.9l75.8 75.8s-71.7-69.9-73.8-67.9c-.7.7 53.9 52.7 53.3 53.3-.7.7-55.1-53.5-56.6-52s53.4 53.4 53.4 53.4-53.4-50.6-54.6-49.3c-.8.8 53.6 52.1 52.8 52.8l-64.8-58.5 74 74c-1.9 1.9-71-66.8-71.6-66.2-1.1 1.1 55.6 52.7 54.1 54.1-1.3 1.3-55.2-50.7-56.2-49.7-.3.3 64 64 64 64l-77.1-71s64.1 63.6 63.8 63.8c0 0-64.7-59.7-65.2-59.3l74.9 74.9-86.9-81s85.1 84 84.5 84.5c0 0-88.8-86.5-90.9-84.3-.5.5 79.5 79.5 79.5 79.5s-74.9-71.7-76-70.6c-.5.5 82.5 79 80.8 80.8-.2.2-84.5-79.6-84.5-79.6-.5.5 77.9 77.9 77.9 77.9-.9.9-78.7-78.5-81-76.1-1.9 1.9 66 65.8 65.9 65.9-2.4 2.4-66.2-64.9-68.2-62.9-1.4 1.4 67.2 67.2 67.2 67.2s-77-74.2-78.5-72.6c0 0 61.3 59.2 60.2 60.2-1.2 1.2-58.6-52.9-58.6-52.9-.3.3 42.2 41.3 41.7 41.7 0 0-39.8-36-40.7-35.2-.4.4 34.3 34.2 34.2 34.2-.6.6-45.3-39.4-45.3-39.4l39.1 39.1" fill="none" stroke="#FFF" stroke-width=".798" stroke-linecap="round" stroke-linejoin="round"/><path d="M431 1060.6c-29.5 14.8-202 184.5-202.3 140.2-.2-36 101.9-231.8 113.1-251.5 41.3-72.8.2-47.3-35.3-117-37-72.5-82.3-79.2-130.3-148.9-22.2-32.2-41.2-103.7-12.6-142.3 16-21.6 115-5.4 138.1 1.5 79.2 23.6 147.6 73.8 216.2 112.7 54.4 30.8 109.5 68.6 101.7 136.2-4.7 41.3-39.6 38.2-55.1 76.5" fill="#FFF"/><radialGradient id="b" cx="488.827" cy="1186.075" r="205.658" gradientTransform="matrix(1 0 0 -1 0 2000)" gradientUnits="userSpaceOnUse"><stop offset="0" stop-color="#BE202E"/><stop offset=".256" stop-color="#BC5931"/><stop offset=".844" stop-color="#B6B734"/><stop offset="1" stop-color="#B4D334"/></radialGradient><path d="M717.3 993.9c-115.4-20.4-284.2-120-394.5-236.1-96.4-99-81.1-151.7 45.3-108.8 104.3 36.9 238 120.7 292.7 182.5 41 47.4 15.2 68.4-54 50-53.9-13.6-129-59.1-170.6-103.8-34.5-36.8-24.3-55.2 24.5-39.9 39.7 12.7 92 45.2 116 71.7 18.7 20.8 9.5 30.6-19.9 22.3-23.2-6.5-55-25.9-71.4-43.7-13.3-14.4-8.5-21.5 11-15.6" fill="url(#b)"/><radialGradient id="c" cx="471.084" cy="1225.409" r="197.878" gradientTransform="matrix(1 0 0 -1 0 2000)" gradientUnits="userSpaceOnUse"><stop offset="0" stop-color="#EF4137"/><stop offset=".415" stop-color="#BD2825"/><stop offset="1" stop-color="#790000"/></radialGradient><path d="M518.4 929.4c-153.5-91.7-290.1-232.5-279.9-294.8 17.6-42.5 167.7 10.7 317.5 105.1C668.4 809.4 726.6 876.8 696.2 898c-20.7 19.8-97.2.9-176.8-46.9-66.4-40.3-115.5-92.7-105.5-113.7 9.5-15.6 66.2 2.5 123.7 38.2 44.8 27.6 71.4 57.3 61 67.7-7.7 8.7-40.7-.3-74.8-21-27.8-17-46.8-37.5-41.7-45.4 4.3-6.1 26.7.7 49.7 14.8" opacity=".6" fill="url(#c)"/><radialGradient id="d" cx="465.099" cy="1240.9" r="239.031" gradientTransform="matrix(1 0 0 -1 0 2000)" gradientUnits="userSpaceOnUse"><stop offset="0" stop-color="#F79420"/><stop offset=".495" stop-color="#DF6023"/><stop offset="1" stop-color="#CA1622"/></radialGradient><path d="M176.6 612.8c-1.7-68.7 176-12.8 372.1 105.8 146.1 86.8 228.8 172.8 198.8 203.1-19.3 28-107.5 12-205-42.1-81.5-46.1-149.8-113.1-146.8-145.3 4.4-24.2 70.8-6.2 144.4 37.2 57.2 33.4 94.6 71.4 85.9 86.7-6.2 12.9-44.4 4.6-86.9-19.5-34.6-19.8-61.1-46.1-58.3-58.1 2.6-9.3 28.8-2.7 57.9 14.2 23 13.3 38.9 29.4 35.9 36.1" opacity=".6" fill="url(#d)"/><radialGradient id="e" cx="471.371" cy="1239.941" r="212.703" gradientTransform="matrix(1 0 0 -1 0 2000)" gradientUnits="userSpaceOnUse"><stop offset="0" stop-color="#F15B29"/><stop offset=".569" stop-color="#EF4529"/><stop offset="1" stop-color="#EE3829"/></radialGradient><path d="M322.7 789.7c-136.7-128.4-150.3-215.4-6.5-176C438.5 651.1 613.8 755.2 695 836.1c59.5 60.5 36.8 91.6-42.8 75.8-60.7-10.3-152.8-61.2-211.3-118.1-49.3-47.5-47.1-77.1 8.6-63.3 45.8 12 113 51 147.8 85.4 26.9 26.7 20.3 41.6-13.3 34.4-26.4-5.4-66-27.7-89.4-50.6-19.1-18.6-17-29.8 5.4-24.5 18.1 4.4 44.8 19.8 59.3 34" opacity=".6" fill="url(#e)"/><path d="M1543.5 1060.6c29.5 14.8 202 184.5 202.3 140.2.2-36-101.9-231.8-113.1-251.5-41.3-72.8-.2-47.3 35.3-117 37-72.5 82.3-79.2 130.3-148.9 22.2-32.2 41.2-103.7 12.6-142.3-16-21.6-115-5.4-138.1 1.5-79.2 23.6-147.6 73.8-216.2 112.7-54.4 30.8-109.4 68.6-101.7 136.2 4.7 41.3 39.6 38.2 55.1 76.5" fill="#FFF"/><radialGradient id="f" cx="1489.375" cy="1189.21" r="210.068" gradientTransform="matrix(1 0 0 -1 0 2000)" gradientUnits="userSpaceOnUse"><stop offset="0" stop-color="#BE202E"/><stop offset=".256" stop-color="#BC5931"/><stop offset=".844" stop-color="#B6B734"/><stop offset="1" stop-color="#B4D334"/></radialGradient><path d="M1253.5 991.4c131.5-23.3 318-127.4 421.3-239.8 84.1-92.7 61.1-144.6-54.4-111.3-94.2 28.5-221.9 106.6-282.8 171.4-47.9 50.7-27.6 76.6 43.6 59.8 56.3-12.7 134.6-58 175.7-102.4 33.2-36 22.6-55.6-24.2-43-37.7 10.4-89.2 41.3-114.6 68.5-20.2 21.6-12.5 32.9 17 25.6 23.5-5.7 55.8-24.7 72.5-42.6 13.4-14.4 8.8-22.1-10.3-17.2" fill="url(#f)"/><radialGradient id="g" cx="1515.884" cy="1230.858" r="194.486" gradientTransform="matrix(1 0 0 -1 0 2000)" gradientUnits="userSpaceOnUse"><stop offset="0" stop-color="#EF4137"/><stop offset=".415" stop-color="#BD2825"/><stop offset="1" stop-color="#790000"/></radialGradient><path d="M1479.6 920.8c164.6-93.5 285.7-226.3 263-285.8-21.3-43.3-155.6-2.9-295.6 83.6-110.5 66.5-179 138.8-156.2 166 16.8 23.5 97.3 5.7 182-42.7 68.5-39.8 116.1-91.3 105-113.2-9.4-16.8-63.3-2.1-119.5 31.8-44.7 26.6-73.7 57.4-65.1 69.6 6.6 10 40.1 2 75.3-18.5 28.3-16.6 47.4-37.2 42.5-45.7-4-6.7-25.8-1-48.7 12.6" opacity=".6" fill="url(#g)"/><radialGradient id="h" cx="1517.983" cy="1244.915" r="233.9" gradientTransform="matrix(1 0 0 -1 0 2000)" gradientUnits="userSpaceOnUse"><stop offset="0" stop-color="#F79420"/><stop offset=".495" stop-color="#DF6023"/><stop offset="1" stop-color="#CA1622"/></radialGradient><path d="M1801.3 616.9c-9.1-66.3-165.7-27-344.5 78.8-141.3 81-237.9 173.5-220 212.4 12.3 33.5 105.8 18.6 211.8-37.1 85.8-46.1 152.4-111.9 147-144.5-5.1-25.1-67.9-11.4-139.2 29.2-56.7 31.9-97.4 71.2-91.6 89 4.4 14.6 43.4 7.5 87.6-16.5 35.6-19.4 62.4-45.7 59.6-58.4-2.3-9.9-27.8-4.7-56.7 11.5-23.1 12.8-39.9 29.2-37.7 36.8" opacity=".6" fill="url(#h)"/><radialGradient id="i" cx="1515.538" cy="1245.863" r="208.853" gradientTransform="matrix(1 0 0 -1 0 2000)" gradientUnits="userSpaceOnUse"><stop offset="0" stop-color="#F15B29"/><stop offset=".569" stop-color="#EF4529"/><stop offset="1" stop-color="#EE3829"/></radialGradient><path d="M1681.8 781.6c120.7-119.6 116.9-201.3-14.5-173.2-108.3 26.3-272 120.7-360.6 204.7-69.2 64.8-56.4 103.2 25.3 89.6 64-9.3 162.2-60.8 221-117.4 47.7-46.3 43.9-76.6-9.4-66.1-43.2 9.1-108.7 45.7-145.5 80.7-29.1 27.7-25 44.7 8.7 38.7 26.8-4.5 67.6-26.5 91.5-49.4 19.2-18.5 17.3-30.4-4.5-26.2-17.5 3.4-44.1 18.1-59.2 32.5" opacity=".6" fill="url(#i)"/><linearGradient id="j" gradientUnits="userSpaceOnUse" x1="1361.493" y1="572.207" x2="607.106" y2="1326.593" gradientTransform="matrix(1 0 0 -1 0 2000)"><stop offset="0" stop-color="#941A1D"/><stop offset=".09" stop-color="#AB3123"/><stop offset=".218" stop-color="#C54729"/><stop offset=".36" stop-color="#D9582E"/><stop offset=".526" stop-color="#E76331"/><stop offset=".774" stop-color="#ED6732"/><stop offset=".859" stop-color="#ED6932"/><stop offset=".891" stop-color="#EE6E33"/><stop offset=".915" stop-color="#EF7735"/><stop offset=".934" stop-color="#F18337"/><stop offset=".951" stop-color="#F3933B"/><stop offset=".966" stop-color="#F7A73F"/><stop offset=".98" stop-color="#FBBF45"/><stop offset=".992" stop-color="#FFDB4B"/><stop offset="1" stop-color="#FFF450"/></linearGradient><ellipse cx="984.3" cy="1050.6" rx="642.4" ry="395.3" fill="url(#j)"/><linearGradient id="k" gradientUnits="userSpaceOnUse" x1="651.284" y1="916.9" x2="845.196" y2="916.9" gradientTransform="matrix(1 0 0 -1 0 2000)"><stop offset="0" stop-color="#FFF"/><stop offset="1"/></linearGradient><path d="M844.4 1110.8c-6.8 23.7-55.4 30.5-108.5 15.2s-90.7-46.9-83.8-70.6 55.4-30.5 108.5-15.2 90.6 46.9 83.8 70.6z" opacity=".7" fill="url(#k)" stroke="#2E3192" stroke-width=".798" stroke-miterlimit="10"/><radialGradient id="l" cx="756.268" cy="919.02" r="39.795" gradientTransform="matrix(1 0 0 -.5 0 1540.49)" gradientUnits="userSpaceOnUse"><stop offset="0" stop-color="#FFF"/><stop offset=".007" stop-color="#F6F6F6"/><stop offset=".048" stop-color="#C8C8C8"/><stop offset=".093" stop-color="#9D9D9D"/><stop offset=".142" stop-color="#777"/><stop offset=".195" stop-color="#575757"/><stop offset=".254" stop-color="#3B3B3B"/><stop offset=".32" stop-color="#252525"/><stop offset=".397" stop-color="#141414"/><stop offset=".493" stop-color="#090909"/><stop offset=".627" stop-color="#020202"/><stop offset="1"/></radialGradient><path d="M834.1 1118.6c-4.1 14.3-28.7 19.7-54.9 12.2-26.2-7.6-44.2-25.2-40-39.5s28.7-19.7 54.9-12.2 44.1 25.2 40 39.5z" fill="url(#l)"/><linearGradient id="m" gradientUnits="userSpaceOnUse" x1="1125.104" y1="916.9" x2="1319.016" y2="916.9" gradientTransform="matrix(1 0 0 -1 0 2000)"><stop offset="0"/><stop offset="1" stop-color="#FFF"/></linearGradient><path d="M1125.9 1110.8c6.8 23.7 55.4 30.5 108.5 15.2s90.7-46.9 83.8-70.6c-6.8-23.7-55.4-30.5-108.5-15.2s-90.6 46.9-83.8 70.6z" opacity=".7" fill="url(#m)" stroke="#2E3192" stroke-width=".798" stroke-miterlimit="10"/><radialGradient id="n" cx="1156.397" cy="911.039" r="39.795" gradientTransform="matrix(1 0 0 -.5 0 1544.48)" gradientUnits="userSpaceOnUse"><stop offset="0" stop-color="#FFF"/><stop offset=".007" stop-color="#F6F6F6"/><stop offset=".048" stop-color="#C8C8C8"/><stop offset=".093" stop-color="#9D9D9D"/><stop offset=".142" stop-color="#777"/><stop offset=".195" stop-color="#575757"/><stop offset=".254" stop-color="#3B3B3B"/><stop offset=".32" stop-color="#252525"/><stop offset=".397" stop-color="#141414"/><stop offset=".493" stop-color="#090909"/><stop offset=".627" stop-color="#020202"/><stop offset="1"/></radialGradient><path d="M1134.4 1118.6c4.1 14.3 28.7 19.7 54.9 12.2 26.2-7.6 44.2-25.2 40-39.5-4.1-14.3-28.7-19.7-54.9-12.2-26.1 7.5-44.1 25.2-40 39.5z" fill="url(#n)"/><path d="M889.4 1007.9c.1-2.2.2-4.4.2-6.7 0-54.6-44.3-98.8-98.8-98.8-4.2 0-8.3.3-12.4.8-12.9-2.1-23.9 0-31.2 7-11 10.5-11.3 29.9-2.8 51.7 50.1 3 90.2 43.3 92.8 93.5 19.5 7.4 36.8 7 47-2.7 9.8-9.3 11.1-25.8 5.2-44.8zM1079.3 1007.9c-.1-2.2-.2-4.4-.2-6.7 0-54.6 44.3-98.8 98.8-98.8 4.2 0 8.3.3 12.4.8 12.9-2.1 23.9 0 31.2 7 11 10.5 11.3 29.9 2.8 51.7-50.1 3-90.2 43.3-92.8 93.5-19.5 7.4-36.8 7-47-2.7-9.8-9.3-11.1-25.8-5.2-44.8z" fill="#FFF" stroke="#FFF" stroke-width=".798" stroke-linecap="round" stroke-linejoin="round" stroke-miterlimit="10"/><path d="M1328.9 1244.6c-4.6-15.1-22.3-22.8-35.9-28.7-27.3-11.9-39.9-6.5-64.6-12-32.9-7.3-54.2-26.4-88.6-57.5-33.7-30.4-28.7-36.2-52.7-55.1-5.3-4.1-52.8-40.6-103-40.7-50.2.1-97.7 36.6-103 40.7-24 18.8-18.9 24.7-52.7 55.1-34.4 31-55.7 50.2-88.6 57.5-24.8 5.5-37.4.1-64.6 12-13.6 6-31.3 13.7-35.9 28.7-7.4 24 22.8 52.2 33.5 62.3 47.6 44.5 82 28.3 122.1 69.4 7.7 7.9 1.1 3 40.7 62.3 39.2 58.6 47.6 66.3 55.1 71.8 35.6 26.3 78.2 24.5 91 23.9.8 0 1.6-.1 2.4-.1.8 0 1.6.1 2.4.1 12.8.6 55.4 2.4 91-23.9 7.5-5.5 15.9-13.2 55.1-71.8 39.6-59.2 33-54.4 40.7-62.3 40.1-41.1 74.5-24.9 122.1-69.4 10.7-10.1 40.9-38.3 33.5-62.3z" fill="#FFF"/><radialGradient id="o" cx="984.1" cy="707.414" r="298.531" gradientTransform="matrix(1 0 0 -1 0 2000)" gradientUnits="userSpaceOnUse"><stop offset="0" stop-color="#FFF"/><stop offset=".05" stop-color="#FCDED1"/><stop offset=".114" stop-color="#F9B89C"/><stop offset=".176" stop-color="#F79970"/><stop offset=".236" stop-color="#F5814E"/><stop offset=".293" stop-color="#F36F36"/><stop offset=".345" stop-color="#F26527"/><stop offset=".389" stop-color="#F26122"/><stop offset=".42" stop-color="#F26525"/><stop offset=".463" stop-color="#F37030"/><stop offset=".512" stop-color="#F58045"/><stop offset=".566" stop-color="#F79664"/><stop offset=".624" stop-color="#FAB48C"/><stop offset=".684" stop-color="#FDDAC4"/><stop offset=".731" stop-color="#FFF"/></radialGradient><path d="M1328.9 1244.6c-4.6-15.1-22.3-22.8-35.9-28.7-27.3-11.9-39.9-6.5-64.6-12-32.9-7.3-54.2-26.4-88.6-57.5-33.7-30.4-28.7-36.2-52.7-55.1-5.3-4.1-52.8-40.6-103-40.7-50.2.1-97.7 36.6-103 40.7-24 18.8-18.9 24.7-52.7 55.1-34.4 31-55.7 50.2-88.6 57.5-24.8 5.5-37.4.1-64.6 12-13.6 6-31.3 13.7-35.9 28.7-7.4 24 22.8 52.2 33.5 62.3 47.6 44.5 82 28.3 122.1 69.4 7.7 7.9 1.1 3 40.7 62.3 39.2 58.6 47.6 66.3 55.1 71.8 35.6 26.3 78.2 24.5 91 23.9.8 0 1.6-.1 2.4-.1.8 0 1.6.1 2.4.1 12.8.6 55.4 2.4 91-23.9 7.5-5.5 15.9-13.2 55.1-71.8 39.6-59.2 33-54.4 40.7-62.3 40.1-41.1 74.5-24.9 122.1-69.4 10.7-10.1 40.9-38.3 33.5-62.3z" opacity=".5" fill="url(#o)"/><radialGradient id="p" cx="931.763" cy="724.933" r="81.337" gradientTransform="matrix(1 0 0 -.5 0 1637.533)" gradientUnits="userSpaceOnUse"><stop offset="0" stop-color="#FFF"/><stop offset=".007" stop-color="#F6F6F6"/><stop offset=".048" stop-color="#C8C8C8"/><stop offset=".093" stop-color="#9D9D9D"/><stop offset=".142" stop-color="#777"/><stop offset=".195" stop-color="#575757"/><stop offset=".254" stop-color="#3B3B3B"/><stop offset=".32" stop-color="#252525"/><stop offset=".397" stop-color="#141414"/><stop offset=".493" stop-color="#090909"/><stop offset=".627" stop-color="#020202"/><stop offset="1"/></radialGradient><path d="M1033.7 1248.3h-98.8c-27.2 0-49.4 22.2-49.4 49.4 0 23.7 16.9 43.7 39.3 48.4 16.6 12.5 37.2 19.9 59.5 19.9s43-7.4 59.5-19.9c22.4-4.7 39.3-24.6 39.3-48.4 0-27.1-22.2-49.4-49.4-49.4z" fill="url(#p)"/><g><path class="tounge" d="M1107.6 1387.6c-15.1 55.4-65.9 94-123.3 93.7-57-.4-107.2-39.2-121.9-94.4l245.2.7z" fill="#EC008C"/><g class="tooth-row"><linearGradient id="dv" gradientUnits="userSpaceOnUse" x1="1044.838" y1="534.888" x2="1052.914" y2="537.828" gradientTransform="matrix(.96 .253 .281 -.875 -102.164 1663.128)"><stop offset="0" stop-color="#FFF"/><stop offset=".327" stop-color="#FCFCFC"/><stop offset=".464" stop-color="#F4F5F5"/><stop offset=".565" stop-color="#EAEBEB"/><stop offset=".649" stop-color="#DBDCDD"/><stop offset=".722" stop-color="#C8CACC"/><stop offset=".787" stop-color="#B0B2B5"/><stop offset=".847" stop-color="#96989A"/><stop offset=".902" stop-color="#787A7D"/><stop offset=".952" stop-color="#565759"/><stop offset="1"/></linearGradient><path d="M1055.6 1469.9c3.6-.1 5.1-5.8 3.4-12.8l-1-4.1c-1.7-7-4.2-6.9-5.6.1l-.8 4.1c-1.4 7.1.5 12.8 4 12.7z" fill="url(#dv)"/><linearGradient id="dw" gradientUnits="userSpaceOnUse" x1="1039.344" y1="528.618" x2="1047.421" y2="531.558" gradientTransform="matrix(.96 .253 .281 -.875 -102.164 1663.128)"><stop offset="0" stop-color="#FFF"/><stop offset=".327" stop-color="#FCFCFC"/><stop offset=".464" stop-color="#F4F5F5"/><stop offset=".565" stop-color="#EAEBEB"/><stop offset=".649" stop-color="#DBDCDD"/><stop offset=".722" stop-color="#C8CACC"/><stop offset=".787" stop-color="#B0B2B5"/><stop offset=".847" stop-color="#96989A"/><stop offset=".902" stop-color="#787A7D"/><stop offset=".952" stop-color="#565759"/><stop offset="1"/></linearGradient><path d="M1048.6 1474c3.6-.1 5.1-5.8 3.4-12.8l-1-4.1c-1.7-7-4.2-6.9-5.6.1l-.8 4.1c-1.5 7.1.4 12.8 4 12.7z" fill="url(#dw)"/><linearGradient id="dx" gradientUnits="userSpaceOnUse" x1="1033.897" y1="522.191" x2="1041.973" y2="525.131" gradientTransform="matrix(.96 .253 .281 -.875 -102.164 1663.128)"><stop offset="0" stop-color="#FFF"/><stop offset=".327" stop-color="#FCFCFC"/><stop offset=".464" stop-color="#F4F5F5"/><stop offset=".565" stop-color="#EAEBEB"/><stop offset=".649" stop-color="#DBDCDD"/><stop offset=".722" stop-color="#C8CACC"/><stop offset=".787" stop-color="#B0B2B5"/><stop offset=".847" stop-color="#96989A"/><stop offset=".902" stop-color="#787A7D"/><stop offset=".952" stop-color="#565759"/><stop offset="1"/></linearGradient><path d="M1041.5 1478.2c3.6-.1 5.1-5.8 3.4-12.8l-1-4.1c-1.7-7-4.2-6.9-5.6.1l-.8 4.1c-1.4 7.1.5 12.8 4 12.7z" fill="url(#dx)"/><linearGradient id="dy" gradientUnits="userSpaceOnUse" x1="1027.972" y1="517.393" x2="1036.049" y2="520.332" gradientTransform="matrix(.96 .253 .281 -.875 -102.164 1663.128)"><stop offset="0" stop-color="#FFF"/><stop offset=".327" stop-color="#FCFCFC"/><stop offset=".464" stop-color="#F4F5F5"/><stop offset=".565" stop-color="#EAEBEB"/><stop offset=".649" stop-color="#DBDCDD"/><stop offset=".722" stop-color="#C8CACC"/><stop offset=".787" stop-color="#B0B2B5"/><stop offset=".847" stop-color="#96989A"/><stop offset=".902" stop-color="#787A7D"/><stop offset=".952" stop-color="#565759"/><stop offset="1"/></linearGradient><path d="M1034.5 1481c3.6-.1 5.1-5.8 3.4-12.8l-1-4.1c-1.7-7-4.2-6.9-5.6.1l-.8 4.1c-1.4 7 .5 12.7 4 12.7z" fill="url(#dy)"/><linearGradient id="dz" gradientUnits="userSpaceOnUse" x1="1022.196" y1="512.088" x2="1030.272" y2="515.028" gradientTransform="matrix(.96 .253 .281 -.875 -102.164 1663.128)"><stop offset="0" stop-color="#FFF"/><stop offset=".327" stop-color="#FCFCFC"/><stop offset=".464" stop-color="#F4F5F5"/><stop offset=".565" stop-color="#EAEBEB"/><stop offset=".649" stop-color="#DBDCDD"/><stop offset=".722" stop-color="#C8CACC"/><stop offset=".787" stop-color="#B0B2B5"/><stop offset=".847" stop-color="#96989A"/><stop offset=".902" stop-color="#787A7D"/><stop offset=".952" stop-color="#565759"/><stop offset="1"/></linearGradient><path d="M1027.5 1484.1c3.6-.1 5.1-5.8 3.4-12.8l-1-4.1c-1.7-7-4.2-6.9-5.6.1l-.8 4.1c-1.5 7.1.4 12.8 4 12.7z" fill="url(#dz)"/><linearGradient id="dA" gradientUnits="userSpaceOnUse" x1="1016.291" y1="507.221" x2="1024.367" y2="510.161" gradientTransform="matrix(.96 .253 .281 -.875 -102.164 1663.128)"><stop offset="0" stop-color="#FFF"/><stop offset=".327" stop-color="#FCFCFC"/><stop offset=".464" stop-color="#F4F5F5"/><stop offset=".565" stop-color="#EAEBEB"/><stop offset=".649" stop-color="#DBDCDD"/><stop offset=".722" stop-color="#C8CACC"/><stop offset=".787" stop-color="#B0B2B5"/><stop offset=".847" stop-color="#96989A"/><stop offset=".902" stop-color="#787A7D"/><stop offset=".952" stop-color="#565759"/><stop offset="1"/></linearGradient><path d="M1020.4 1486.9c3.6-.1 5.1-5.8 3.4-12.8l-1-4.1c-1.7-7-4.2-6.9-5.6.1l-.8 4.1c-1.4 7.1.5 12.8 4 12.7z" fill="url(#dA)"/><linearGradient id="dB" gradientUnits="userSpaceOnUse" x1="1009.965" y1="503.794" x2="1018.041" y2="506.734" gradientTransform="matrix(.96 .253 .281 -.875 -102.164 1663.128)"><stop offset="0" stop-color="#FFF"/><stop offset=".327" stop-color="#FCFCFC"/><stop offset=".464" stop-color="#F4F5F5"/><stop offset=".565" stop-color="#EAEBEB"/><stop offset=".649" stop-color="#DBDCDD"/><stop offset=".722" stop-color="#C8CACC"/><stop offset=".787" stop-color="#B0B2B5"/><stop offset=".847" stop-color="#96989A"/><stop offset=".902" stop-color="#787A7D"/><stop offset=".952" stop-color="#565759"/><stop offset="1"/></linearGradient><path d="M1013.4 1488.3c3.6-.1 5.1-5.8 3.4-12.8l-1-4.1c-1.7-7-4.2-6.9-5.6.1l-.8 4.1c-1.4 7.1.5 12.8 4 12.7z" fill="url(#dB)"/><linearGradient id="dC" gradientUnits="userSpaceOnUse" x1="1003.515" y1="500.791" x2="1011.591" y2="503.73" gradientTransform="matrix(.96 .253 .281 -.875 -102.164 1663.128)"><stop offset="0" stop-color="#FFF"/><stop offset=".327" stop-color="#FCFCFC"/><stop offset=".464" stop-color="#F4F5F5"/><stop offset=".565" stop-color="#EAEBEB"/><stop offset=".649" stop-color="#DBDCDD"/><stop offset=".722" stop-color="#C8CACC"/><stop offset=".787" stop-color="#B0B2B5"/><stop offset=".847" stop-color="#96989A"/><stop offset=".902" stop-color="#787A7D"/><stop offset=".952" stop-color="#565759"/><stop offset="1"/></linearGradient><path d="M1006.4 1489.3c3.6-.1 5.1-5.8 3.4-12.8l-1-4.1c-1.7-7-4.2-6.9-5.6.1l-.8 4.1c-1.5 7.1.4 12.8 4 12.7z" fill="url(#dC)"/><linearGradient id="dD" gradientUnits="userSpaceOnUse" x1="997.158" y1="497.469" x2="1005.234" y2="500.408" gradientTransform="matrix(.96 .253 .281 -.875 -102.164 1663.128)"><stop offset="0" stop-color="#FFF"/><stop offset=".327" stop-color="#FCFCFC"/><stop offset=".464" stop-color="#F4F5F5"/><stop offset=".565" stop-color="#EAEBEB"/><stop offset=".649" stop-color="#DBDCDD"/><stop offset=".722" stop-color="#C8CACC"/><stop offset=".787" stop-color="#B0B2B5"/><stop offset=".847" stop-color="#96989A"/><stop offset=".902" stop-color="#787A7D"/><stop offset=".952" stop-color="#565759"/><stop offset="1"/></linearGradient><path d="M999.3 1490.6c3.6-.1 5.1-5.8 3.4-12.8l-1-4.1c-1.7-7-4.2-6.9-5.6.1l-.8 4.1c-1.4 7.1.5 12.8 4 12.7z" fill="url(#dD)"/><linearGradient id="dE" gradientUnits="userSpaceOnUse" x1="990.601" y1="494.83" x2="998.677" y2="497.769" gradientTransform="matrix(.96 .253 .281 -.875 -102.164 1663.128)"><stop offset="0" stop-color="#FFF"/><stop offset=".327" stop-color="#FCFCFC"/><stop offset=".464" stop-color="#F4F5F5"/><stop offset=".565" stop-color="#EAEBEB"/><stop offset=".649" stop-color="#DBDCDD"/><stop offset=".722" stop-color="#C8CACC"/><stop offset=".787" stop-color="#B0B2B5"/><stop offset=".847" stop-color="#96989A"/><stop offset=".902" stop-color="#787A7D"/><stop offset=".952" stop-color="#565759"/><stop offset="1"/></linearGradient><path d="M992.3 1491.3c3.6-.1 5.1-5.8 3.4-12.8l-1-4.1c-1.7-7-4.2-6.9-5.6.1l-.8 4.1c-1.4 7 .5 12.7 4 12.7z" fill="url(#dE)"/><linearGradient id="dF" gradientUnits="userSpaceOnUse" x1="983.901" y1="492.68" x2="991.977" y2="495.619" gradientTransform="matrix(.96 .253 .281 -.875 -102.164 1663.128)"><stop offset="0" stop-color="#FFF"/><stop offset=".327" stop-color="#FCFCFC"/><stop offset=".464" stop-color="#F4F5F5"/><stop offset=".565" stop-color="#EAEBEB"/><stop offset=".649" stop-color="#DBDCDD"/><stop offset=".722" stop-color="#C8CACC"/><stop offset=".787" stop-color="#B0B2B5"/><stop offset=".847" stop-color="#96989A"/><stop offset=".902" stop-color="#787A7D"/><stop offset=".952" stop-color="#565759"/><stop offset="1"/></linearGradient><path d="M985.3 1491.4c3.6-.1 5.1-5.8 3.4-12.8l-1-4.1c-1.7-7-4.2-6.9-5.6.1l-.8 4.1c-1.5 7.1.4 12.8 4 12.7z" fill="url(#dF)"/><g><linearGradient id="dG" gradientUnits="userSpaceOnUse" x1="977.085" y1="490.925" x2="985.161" y2="493.864" gradientTransform="matrix(.96 .253 .281 -.875 -102.164 1663.128)"><stop offset="0" stop-color="#FFF"/><stop offset=".327" stop-color="#FCFCFC"/><stop offset=".464" stop-color="#F4F5F5"/><stop offset=".565" stop-color="#EAEBEB"/><stop offset=".649" stop-color="#DBDCDD"/><stop offset=".722" stop-color="#C8CACC"/><stop offset=".787" stop-color="#B0B2B5"/><stop offset=".847" stop-color="#96989A"/><stop offset=".902" stop-color="#787A7D"/><stop offset=".952" stop-color="#565759"/><stop offset="1"/></linearGradient><path d="M978.2 1491.3c3.6-.1 5.1-5.8 3.4-12.8l-1-4.1c-1.7-7-4.2-6.9-5.6.1l-.8 4.1c-1.4 7 .5 12.7 4 12.7z" fill="url(#dG)"/></g><g><linearGradient id="dH" gradientUnits="userSpaceOnUse" x1="970.126" y1="489.659" x2="978.202" y2="492.599" gradientTransform="matrix(.96 .253 .281 -.875 -102.164 1663.128)"><stop offset="0" stop-color="#FFF"/><stop offset=".327" stop-color="#FCFCFC"/><stop offset=".464" stop-color="#F4F5F5"/><stop offset=".565" stop-color="#EAEBEB"/><stop offset=".649" stop-color="#DBDCDD"/><stop offset=".722" stop-color="#C8CACC"/><stop offset=".787" stop-color="#B0B2B5"/><stop offset=".847" stop-color="#96989A"/><stop offset=".902" stop-color="#787A7D"/><stop offset=".952" stop-color="#565759"/><stop offset="1"/></linearGradient><path d="M971.2 1490.6c3.6-.1 5.1-5.8 3.4-12.8l-1-4.1c-1.7-7-4.2-6.9-5.6.1l-.8 4.1c-1.4 7.1.5 12.8 4 12.7z" fill="url(#dH)"/></g><g><linearGradient id="dI" gradientUnits="userSpaceOnUse" x1="962.967" y1="489.077" x2="971.043" y2="492.016" gradientTransform="matrix(.96 .253 .281 -.875 -102.164 1663.128)"><stop offset="0" stop-color="#FFF"/><stop offset=".327" stop-color="#FCFCFC"/><stop offset=".464" stop-color="#F4F5F5"/><stop offset=".565" stop-color="#EAEBEB"/><stop offset=".649" stop-color="#DBDCDD"/><stop offset=".722" stop-color="#C8CACC"/><stop offset=".787" stop-color="#B0B2B5"/><stop offset=".847" stop-color="#96989A"/><stop offset=".902" stop-color="#787A7D"/><stop offset=".952" stop-color="#565759"/><stop offset="1"/></linearGradient><path d="M964.2 1489.3c3.6-.1 5.1-5.8 3.4-12.8l-1-4.1c-1.7-7-4.2-6.9-5.6.1l-.8 4.1c-1.5 7.1.4 12.8 4 12.7z" fill="url(#dI)"/></g><g><linearGradient id="dJ" gradientUnits="userSpaceOnUse" x1="955.901" y1="488.175" x2="963.977" y2="491.115" gradientTransform="matrix(.96 .253 .281 -.875 -102.164 1663.128)"><stop offset="0" stop-color="#FFF"/><stop offset=".327" stop-color="#FCFCFC"/><stop offset=".464" stop-color="#F4F5F5"/><stop offset=".565" stop-color="#EAEBEB"/><stop offset=".649" stop-color="#DBDCDD"/><stop offset=".722" stop-color="#C8CACC"/><stop offset=".787" stop-color="#B0B2B5"/><stop offset=".847" stop-color="#96989A"/><stop offset=".902" stop-color="#787A7D"/><stop offset=".952" stop-color="#565759"/><stop offset="1"/></linearGradient><path d="M957.1 1488.3c3.6-.1 5.1-5.8 3.4-12.8l-1-4.1c-1.7-7-4.2-6.9-5.6.1l-.8 4.1c-1.4 7.1.5 12.8 4 12.7z" fill="url(#dJ)"/></g><g><linearGradient id="dK" gradientUnits="userSpaceOnUse" x1="948.712" y1="487.698" x2="956.788" y2="490.637" gradientTransform="matrix(.96 .253 .281 -.875 -102.164 1663.128)"><stop offset="0" stop-color="#FFF"/><stop offset=".327" stop-color="#FCFCFC"/><stop offset=".464" stop-color="#F4F5F5"/><stop offset=".565" stop-color="#EAEBEB"/><stop offset=".649" stop-color="#DBDCDD"/><stop offset=".722" stop-color="#C8CACC"/><stop offset=".787" stop-color="#B0B2B5"/><stop offset=".847" stop-color="#96989A"/><stop offset=".902" stop-color="#787A7D"/><stop offset=".952" stop-color="#565759"/><stop offset="1"/></linearGradient><path d="M950.1 1486.9c3.6-.1 5.1-5.8 3.4-12.8l-1-4.1c-1.7-7-4.2-6.9-5.6.1l-.8 4.1c-1.4 7.1.4 12.8 4 12.7z" fill="url(#dK)"/></g><g><linearGradient id="dL" gradientUnits="userSpaceOnUse" x1="941.1" y1="488.66" x2="949.176" y2="491.599" gradientTransform="matrix(.96 .253 .281 -.875 -102.164 1663.128)"><stop offset="0" stop-color="#FFF"/><stop offset=".327" stop-color="#FCFCFC"/><stop offset=".464" stop-color="#F4F5F5"/><stop offset=".565" stop-color="#EAEBEB"/><stop offset=".649" stop-color="#DBDCDD"/><stop offset=".722" stop-color="#C8CACC"/><stop offset=".787" stop-color="#B0B2B5"/><stop offset=".847" stop-color="#96989A"/><stop offset=".902" stop-color="#787A7D"/><stop offset=".952" stop-color="#565759"/><stop offset="1"/></linearGradient><path d="M943.1 1484.1c3.6-.1 5.1-5.8 3.4-12.8l-1-4.1c-1.7-7-4.2-6.9-5.6.1l-.8 4.1c-1.5 7.1.4 12.8 4 12.7z" fill="url(#dL)"/></g><g><linearGradient id="dM" gradientUnits="userSpaceOnUse" x1="933.361" y1="490.06" x2="941.437" y2="492.999" gradientTransform="matrix(.96 .253 .281 -.875 -102.164 1663.128)"><stop offset="0" stop-color="#FFF"/><stop offset=".327" stop-color="#FCFCFC"/><stop offset=".464" stop-color="#F4F5F5"/><stop offset=".565" stop-color="#EAEBEB"/><stop offset=".649" stop-color="#DBDCDD"/><stop offset=".722" stop-color="#C8CACC"/><stop offset=".787" stop-color="#B0B2B5"/><stop offset=".847" stop-color="#96989A"/><stop offset=".902" stop-color="#787A7D"/><stop offset=".952" stop-color="#565759"/><stop offset="1"/></linearGradient><path d="M936 1481c3.6-.1 5.1-5.8 3.4-12.8l-1-4.1c-1.7-7-4.2-6.9-5.6.1l-.8 4.1c-1.4 7 .5 12.7 4 12.7z" fill="url(#dM)"/></g><g><linearGradient id="dN" gradientUnits="userSpaceOnUse" x1="925.769" y1="490.954" x2="933.846" y2="493.893" gradientTransform="matrix(.96 .253 .281 -.875 -102.164 1663.128)"><stop offset="0" stop-color="#FFF"/><stop offset=".327" stop-color="#FCFCFC"/><stop offset=".464" stop-color="#F4F5F5"/><stop offset=".565" stop-color="#EAEBEB"/><stop offset=".649" stop-color="#DBDCDD"/><stop offset=".722" stop-color="#C8CACC"/><stop offset=".787" stop-color="#B0B2B5"/><stop offset=".847" stop-color="#96989A"/><stop offset=".902" stop-color="#787A7D"/><stop offset=".952" stop-color="#565759"/><stop offset="1"/></linearGradient><path d="M929 1478.2c3.6-.1 5.1-5.8 3.4-12.8l-1-4.1c-1.7-7-4.2-6.9-5.6.1l-.8 4.1c-1.4 7.1.4 12.8 4 12.7z" fill="url(#dN)"/></g><g><linearGradient id="dO" gradientUnits="userSpaceOnUse" x1="917.701" y1="493.476" x2="925.778" y2="496.415" gradientTransform="matrix(.96 .253 .281 -.875 -102.164 1663.128)"><stop offset="0" stop-color="#FFF"/><stop offset=".327" stop-color="#FCFCFC"/><stop offset=".464" stop-color="#F4F5F5"/><stop offset=".565" stop-color="#EAEBEB"/><stop offset=".649" stop-color="#DBDCDD"/><stop offset=".722" stop-color="#C8CACC"/><stop offset=".787" stop-color="#B0B2B5"/><stop offset=".847" stop-color="#96989A"/><stop offset=".902" stop-color="#787A7D"/><stop offset=".952" stop-color="#565759"/><stop offset="1"/></linearGradient><path d="M921.9 1474c3.6-.1 5.1-5.8 3.4-12.8l-1-4.1c-1.7-7-4.2-6.9-5.6.1l-.8 4.1c-1.4 7.1.5 12.8 4 12.7z" fill="url(#dO)"/></g><g><linearGradient id="dP" gradientUnits="userSpaceOnUse" x1="909.679" y1="495.841" x2="917.755" y2="498.781" gradientTransform="matrix(.96 .253 .281 -.875 -102.164 1663.128)"><stop offset="0" stop-color="#FFF"/><stop offset=".327" stop-color="#FCFCFC"/><stop offset=".464" stop-color="#F4F5F5"/><stop offset=".565" stop-color="#EAEBEB"/><stop offset=".649" stop-color="#DBDCDD"/><stop offset=".722" stop-color="#C8CACC"/><stop offset=".787" stop-color="#B0B2B5"/><stop offset=".847" stop-color="#96989A"/><stop offset=".902" stop-color="#787A7D"/><stop offset=".952" stop-color="#565759"/><stop offset="1"/></linearGradient><path d="M914.9 1469.9c3.6-.1 5.1-5.8 3.4-12.8l-1-4.1c-1.7-7-4.2-6.9-5.6.1l-.8 4.1c-1.4 7.1.5 12.8 4 12.7z" fill="url(#dP)"/></g></g><g class="tooth-left"><linearGradient id="dQ" gradientUnits="userSpaceOnUse" x1="893.183" y1="514.511" x2="903.549" y2="518.284" gradientTransform="matrix(.96 .253 .281 -.875 -102.164 1663.128)"><stop offset="0" stop-color="#FFF"/><stop offset=".327" stop-color="#FCFCFC"/><stop offset=".464" stop-color="#F4F5F5"/><stop offset=".565" stop-color="#EAEBEB"/><stop offset=".649" stop-color="#DBDCDD"/><stop offset=".722" stop-color="#C8CACC"/><stop offset=".787" stop-color="#B0B2B5"/><stop offset=".847" stop-color="#96989A"/><stop offset=".902" stop-color="#787A7D"/><stop offset=".952" stop-color="#565759"/><stop offset="1"/></linearGradient><path d="M905.8 1458.8c4.6-.1 6.5-10.8 4.3-23.8l-1.3-7.6c-2.2-13-5.4-12.9-7.1.1l-1 7.6c-1.8 13.2.6 23.8 5.1 23.7z" fill="url(#dQ)"/></g><g class="tooth-right"><linearGradient id="dR" gradientUnits="userSpaceOnUse" x1="1046.533" y1="558.814" x2="1056.899" y2="562.587" gradientTransform="matrix(.96 .253 .281 -.875 -102.164 1663.128)"><stop offset="0" stop-color="#FFF"/><stop offset=".327" stop-color="#FCFCFC"/><stop offset=".464" stop-color="#F4F5F5"/><stop offset=".565" stop-color="#EAEBEB"/><stop offset=".649" stop-color="#DBDCDD"/><stop offset=".722" stop-color="#C8CACC"/><stop offset=".787" stop-color="#B0B2B5"/><stop offset=".847" stop-color="#96989A"/><stop offset=".902" stop-color="#787A7D"/><stop offset=".952" stop-color="#565759"/><stop offset="1"/></linearGradient><path d="M1065.4 1458.8c4.6-.1 6.5-10.8 4.3-23.8l-1.3-7.6c-2.2-13-5.4-12.9-7.1.1l-1 7.6c-1.8 13.2.6 23.8 5.1 23.7z" fill="url(#dR)"/></g><linearGradient id="dS" gradientUnits="userSpaceOnUse" x1="984.1" y1="530.8" x2="984.1" y2="610.7" gradientTransform="matrix(1 0 0 -1 0 2000)"><stop offset="0" stop-color="#EA0A8A" stop-opacity="0"/><stop offset=".39" stop-color="#E8118A" stop-opacity=".39"/><stop offset=".531" stop-color="#E22289" stop-opacity=".531"/><stop offset=".631" stop-color="#DA3388" stop-opacity=".631"/><stop offset=".712" stop-color="#CE4287" stop-opacity=".712"/><stop offset=".782" stop-color="#BF4F84" stop-opacity=".782"/><stop offset=".843" stop-color="#AB577E" stop-opacity=".843"/><stop offset=".899" stop-color="#955975" stop-opacity=".899"/><stop offset=".949" stop-color="#7B5769" stop-opacity=".949"/><stop offset=".995" stop-color="#5D4C55" stop-opacity=".995"/><stop offset="1" stop-color="#594952"/><stop offset="1" stop-color="#272426"/><stop offset="1"/></linearGradient><path class="lips" d="M1107.6 1387.6c-15.1 55.4-65.9 94-123.3 93.7-57-.4-107.2-39.2-121.9-94.4l245.2.7z" fill="none" stroke="#000" stroke-width="25" stroke-miterlimit="10"/></g><path d="M1375 1101.1l175.5 137.3-.4-.4c-21.4 24.4-46.8 47.2-75.7 68.2l3.6 4.7-137.3-175.5c-25.9-33.1 1.2-60.2 34.3-34.3zM593.6 1101.1l-175.5 137.3.4-.4c21.4 24.4 46.8 47.2 75.7 68.2l-3.6 4.7 137.3-175.5c25.9-33.1-1.2-60.2-34.3-34.3z" opacity=".8" fill="#FFF"/><g fill="none" stroke="#FFF" stroke-width="2.394" stroke-linecap="round" stroke-linejoin="round" stroke-miterlimit="10"><path d="M786.3 1527.6c-86.8 22.4-175.4-29.9-197.8-116.7-17.9-69.5 23.9-140.3 93.4-158.2 0 0 34.7-21.4 86.6 12"/><path d="M632.8 1525.1c-77.2-45.6-102.9-145.1-57.3-222.4 36.5-61.8 116.1-82.3 177.9-45.8"/><path d="M516.4 1415.6c-11.2-43.4-3.7-87.3 17.4-123.1 21.1-35.8 55.9-63.5 99.3-74.7 34.7-8.9 69.8-3 98.4 13.9"/><path d="M676.3 1484.6c-61.8-36.5-82.3-116.1-45.8-177.9 29.2-49.4 100.5-76 142.3-36.7"/></g><g fill="none" stroke="#FFF" stroke-width="2.394" stroke-linecap="round" stroke-linejoin="round" stroke-miterlimit="10"><path d="M1194.5 1527.6c86.8 22.4 175.4-29.9 197.8-116.7 17.9-69.5-23.9-140.3-93.4-158.2 0 0-34.7-21.4-86.6 12"/><path d="M1348.1 1525.1c77.2-45.6 102.9-145.1 57.3-222.4-36.5-61.8-116.1-82.3-177.9-45.8"/><path d="M1464.5 1415.6c11.2-43.4 3.7-87.3-17.4-123.1-21.1-35.8-55.9-63.5-99.3-74.7-34.7-8.9-69.8-3-98.4 13.9M1304.5 1484.6c61.8-36.5 82.3-116.1 45.8-177.9-29.2-49.4-100.5-76-142.3-36.7"/></g></svg>